<?xml version="1.0" encoding="UTF-8" standalone="no"?>
<svg
   xmlns:dc="http://purl.org/dc/elements/1.1/"
   xmlns:cc="http://creativecommons.org/ns#"
   xmlns:rdf="http://www.w3.org/1999/02/22-rdf-syntax-ns#"
   xmlns:svg="http://www.w3.org/2000/svg"
   xmlns="http://www.w3.org/2000/svg"
   xmlns:sodipodi="http://sodipodi.sourceforge.net/DTD/sodipodi-0.dtd"
   xmlns:inkscape="http://www.inkscape.org/namespaces/inkscape"
   width="300"
   height="300"
   viewBox="0 0 79.374999 79.375002"
   version="1.1"
   id="svg8"
   sodipodi:docname="cresent-moon.svg"
   inkscape:version="1.0.2 (1.0.2+r75+1)">
  <defs
     id="defs2">
    <filter
       inkscape:collect="always"
       style="color-interpolation-filters:sRGB"
       id="filter1238"
       x="-0.15109631"
       width="1.3021926"
       y="-0.15109631"
       height="1.3021926">
      <feGaussianBlur
         inkscape:collect="always"
         stdDeviation="3.3977783"
         id="feGaussianBlur1240" />
    </filter>
  </defs>
  <sodipodi:namedview
     id="base"
     pagecolor="#000000"
     bordercolor="#666666"
     borderopacity="1.0"
     inkscape:pageopacity="0"
     inkscape:pageshadow="2"
     inkscape:zoom="1.6729698"
     inkscape:cx="205.71105"
     inkscape:cy="166.75769"
     inkscape:document-units="px"
     inkscape:current-layer="layer1"
     inkscape:document-rotation="0"
     showgrid="false"
     units="px"
     inkscape:window-width="1920"
     inkscape:window-height="1025"
     inkscape:window-x="0"
     inkscape:window-y="27"
     inkscape:window-maximized="1" />
  <metadata
     id="metadata5">
    <rdf:RDF>
      <cc:Work
         rdf:about="">
        <dc:format>image/svg+xml</dc:format>
        <dc:type
           rdf:resource="http://purl.org/dc/dcmitype/StillImage" />
        <dc:title></dc:title>
      </cc:Work>
    </rdf:RDF>
  </metadata>
  <g
     inkscape:label="Layer 1"
     inkscape:groupmode="layer"
     id="layer1">
    <circle
       style="fill:#ccc0a4;fill-opacity:1;stroke:none;stroke-width:0.639779;stroke-linecap:round;stroke-linejoin:bevel"
       id="path830"
       cx="40.40398"
       cy="33.19643"
       r="26.985001" />
    <path
       id="path836"
       style="fill:#857a64;fill-opacity:1;stroke:none;stroke-width:4.52965;stroke-linecap:round;stroke-linejoin:bevel"
       d="M 60.359375 104.59375 A 22.296221 22.296221 0 0 0 52.587891 106.02148 A 101.99055 101.99055 0 0 0 50.716797 125.4668 A 101.99055 101.99055 0 0 0 53.236328 147.99023 A 22.296221 22.296221 0 0 0 60.439453 149.1875 A 22.296221 22.296221 0 0 0 82.736328 126.89062 A 22.296221 22.296221 0 0 0 60.439453 104.59375 A 22.296221 22.296221 0 0 0 60.359375 104.59375 z "
       transform="scale(0.26458333)" />
    <circle
       style="fill:#857a64;fill-opacity:1;stroke:none;stroke-width:0.529167;stroke-linecap:round;stroke-linejoin:bevel"
       id="path838"
       cx="27.391762"
       cy="14.897744"
       r="2.774519" />
    <path
       id="path840"
       style="fill:#857a64;fill-opacity:1;stroke:none;stroke-width:2;stroke-linecap:round;stroke-linejoin:bevel"
       d="M 58.234375 154.10547 A 8.5745407 8.5745407 0 0 0 55.009766 154.73828 A 101.99055 101.99055 0 0 0 61.292969 170.69141 A 8.5745407 8.5745407 0 0 0 66.810547 162.68164 A 8.5745407 8.5745407 0 0 0 58.234375 154.10547 z "
       transform="scale(0.26458333)" />
    <circle
       style="fill:#857a64;fill-opacity:1;stroke:none;stroke-width:0.529167;stroke-linecap:round;stroke-linejoin:bevel"
       id="path844"
       cx="38.040199"
       cy="9.570981"
       r="1.1169904" />
    <circle
       style="fill:#000000;fill-opacity:1;stroke:none;stroke-width:0.639779;stroke-linecap:round;stroke-linejoin:bevel;filter:url(#filter1238)"
       id="circle864"
       cx="60.116028"
       cy="33.391853"
       r="26.985001"
       transform="matrix(1.1160229,0,0,1.3113695,-9.818451,-9.3864253)" />
  </g>
</svg>
