<?xml version="1.0" encoding="UTF-8" standalone="no"?>
<svg
   xmlns:dc="http://purl.org/dc/elements/1.1/"
   xmlns:cc="http://creativecommons.org/ns#"
   xmlns:rdf="http://www.w3.org/1999/02/22-rdf-syntax-ns#"
   xmlns:svg="http://www.w3.org/2000/svg"
   xmlns="http://www.w3.org/2000/svg"
   xmlns:sodipodi="http://sodipodi.sourceforge.net/DTD/sodipodi-0.dtd"
   xmlns:inkscape="http://www.inkscape.org/namespaces/inkscape"
   width="300"
   height="300"
   viewBox="0 0 79.374999 79.375002"
   version="1.1"
   id="svg8"
   sodipodi:docname="howling-wolf.svg"
   inkscape:version="1.0.2 (1.0.2+r75+1)"
   inkscape:export-filename="/home/collin/code/zackbox/zackbox/werewolf/public/svg/howling-wolf.png"
   inkscape:export-xdpi="184.32001"
   inkscape:export-ydpi="184.32001">
  <defs
     id="defs2" />
  <sodipodi:namedview
     id="base"
     pagecolor="#ffffff"
     bordercolor="#666666"
     borderopacity="1.0"
     inkscape:pageopacity="0.0"
     inkscape:pageshadow="2"
     inkscape:zoom="1.5287848"
     inkscape:cx="62.906012"
     inkscape:cy="143.62688"
     inkscape:document-units="px"
     inkscape:current-layer="layer1"
     inkscape:document-rotation="0"
     showgrid="false"
     units="px"
     inkscape:window-width="1511"
     inkscape:window-height="957"
     inkscape:window-x="2"
     inkscape:window-y="79"
     inkscape:window-maximized="0"
     inkscape:object-nodes="false" />
  <metadata
     id="metadata5">
    <rdf:RDF>
      <cc:Work
         rdf:about="">
        <dc:format>image/svg+xml</dc:format>
        <dc:type
           rdf:resource="http://purl.org/dc/dcmitype/StillImage" />
        <dc:title />
      </cc:Work>
    </rdf:RDF>
  </metadata>
  <g
     inkscape:label="Layer 1"
     inkscape:groupmode="layer"
     id="layer1">
    <path
       style="fill:#ccc0a4;stroke:none;stroke-width:0.264583px;stroke-linecap:butt;stroke-linejoin:miter;stroke-opacity:1;fill-opacity:1"
       d="m 49.512309,36.586027 c 0,0 12.80318,-3.328508 12.80318,-13.229894 0,-9.901386 -7.897389,-14.6153354 -12.129715,-14.40405 0,0 10.785954,12.526704 -0.673465,27.633944 z"
       id="path867" />
    <path
       id="path874"
       style="fill:#857a64;fill-opacity:1;stroke-width:3.615;stroke-linecap:round;stroke-linejoin:bevel;stroke-opacity:0.986972"
       d="M 203.11523 52.648438 A 7.9235305 7.9235305 0 0 0 200.77539 53.003906 C 202.60578 57.428201 204.28536 62.498226 205.44531 68.144531 A 7.9235305 7.9235305 0 0 0 211.03906 60.572266 A 7.9235305 7.9235305 0 0 0 203.11523 52.648438 z "
       transform="scale(0.26458333)" />
    <path
       id="path836-3"
       style="fill:#857a64;fill-opacity:1;stroke:none;stroke-width:0.616162;stroke-linecap:round;stroke-linejoin:bevel"
       d="m 60.880578,25.400469 a 3.0329277,3.0329277 0 0 0 1.057146,-0.194212 13.873649,13.873649 0 0 0 0.254523,-2.645124 13.873649,13.873649 0 0 0 -0.342728,-3.063834 3.0329277,3.0329277 0 0 0 -0.979833,-0.162863 3.0329277,3.0329277 0 0 0 -3.033016,3.033017 3.0329277,3.0329277 0 0 0 3.033016,3.033016 3.0329277,3.0329277 0 0 0 0.01085,0 z" />
    <path
       id="path840"
       style="fill:#857a64;fill-opacity:1;stroke:none;stroke-width:0.272058;stroke-linecap:round;stroke-linejoin:bevel"
       d="m 61.169639,18.66545 a 1.1663843,1.1663843 0 0 0 0.43864,-0.08609 13.873649,13.873649 0 0 0 -0.854696,-2.170085 1.1663843,1.1663843 0 0 0 -0.75055,1.089559 1.1663843,1.1663843 0 0 0 1.166606,1.166606 z" />
    <circle
       style="fill:#857a64;fill-opacity:1;stroke:none;stroke-width:0.272058;stroke-linecap:round;stroke-linejoin:bevel"
       id="path838"
       cx="-55.008415"
       cy="-31.968931"
       r="1.4264483"
       transform="scale(-1)" />
    <path
       style="fill:#000000;fill-opacity:1;stroke:#000000;stroke-width:0.22533px;stroke-linecap:butt;stroke-linejoin:miter;stroke-opacity:1"
       d="m 49.014779,22.960488 c 0,0 -2.541391,3.003372 -2.400539,3.875613 0.140849,0.87224 -2.562928,3.962063 -2.562928,3.962063 l -1.972788,2.535795 0.805852,0.07675 c 0,0 0.737189,1.394593 -1.594332,2.692749 -2.331523,1.298157 -14.283033,7.989607 -14.283033,7.989607 -3.479904,2.808182 -6.835129,2.512622 -7.645847,6.869154 0,0 -1.753249,4.460713 -5.400806,4.86693 -3.647557,0.406216 -6.388193,-0.572058 -6.388193,-0.572058 2.632359,2.705347 5.453902,4.599205 9.084051,3.316701 2.002841,-0.787228 4.670791,-6.657213 4.670791,-6.657213 0,0 0.009,7.288171 -2.491377,9.293497 -2.500415,2.005325 -1.896085,10.420902 -1.896085,10.420902 l 2.550723,-0.719987 c 0,0 0.885935,-9.725793 6.311015,-10.88082 5.425084,-1.155022 -0.113626,8.767637 -0.113626,8.767637 l 2.260353,-1.015086 c 0,0 6.175996,-10.932957 5.597375,-12.574069 3.559168,-3.776811 4.92005,1.61032 5.016605,4.412645 0.02088,1.613889 -0.720122,5.042555 -0.720122,5.042555 l 2.479627,-1.412142 0.962686,-9.485927 c 2.031866,-3.366293 2.128766,5.945405 1.687969,9.247397 l 1.975989,-1.116772 c 0.446191,-3.409955 -0.03447,-8.321858 2.353617,-11.468903 0,0 6.919115,-9.781021 4.127438,-15.335134 -2.791679,-5.554113 0.418957,-9.90765 0.418957,-9.90765 l -1.202043,0.104718 -0.279665,-1.44515 z"
       id="path836"
       sodipodi:nodetypes="cscccsccscccsccsccccccccccscccc" />
    <path
       style="fill:#000000;fill-opacity:1;stroke:#000000;stroke-width:0.22533px;stroke-linecap:butt;stroke-linejoin:miter;stroke-opacity:1"
       d="m 0.57274673,74.704548 21.42715727,-7.105563 -1.196094,2.444472 11.750621,-5.660259 -0.559371,2.661238 2.987629,-3.531937 -0.492872,2.971763 2.156955,-2.977628 10.03918,-4.236662 1.455873,-2.051872 0.286138,1.479588 1.159983,-2.978802 2.47783,4.816837 0.655755,-2.072839 9.33627,14.7798 z"
       id="path831"
       sodipodi:nodetypes="cccccccccccccccc" />
  </g>
</svg>
