<?xml version="1.0" encoding="UTF-8" standalone="no"?>
<svg
   xmlns:dc="http://purl.org/dc/elements/1.1/"
   xmlns:cc="http://creativecommons.org/ns#"
   xmlns:rdf="http://www.w3.org/1999/02/22-rdf-syntax-ns#"
   xmlns:svg="http://www.w3.org/2000/svg"
   xmlns="http://www.w3.org/2000/svg"
   xmlns:sodipodi="http://sodipodi.sourceforge.net/DTD/sodipodi-0.dtd"
   xmlns:inkscape="http://www.inkscape.org/namespaces/inkscape"
   width="11.098949cm"
   height="9.2080517cm"
   viewBox="0 0 110.9895 92.080521"
   version="1.1"
   id="svg8"
   sodipodi:docname="werewolf-online.svg"
   inkscape:version="1.0.2 (1.0.2+r75+1)">
  <defs
     id="defs2" />
  <sodipodi:namedview
     id="base"
     pagecolor="#ffffff"
     bordercolor="#666666"
     borderopacity="1.0"
     inkscape:pageopacity="0.0"
     inkscape:pageshadow="2"
     inkscape:zoom="2.3659365"
     inkscape:cx="218.84311"
     inkscape:cy="168.89348"
     inkscape:document-units="px"
     inkscape:current-layer="layer1"
     inkscape:document-rotation="0"
     showgrid="false"
     units="cm"
     inkscape:window-width="1920"
     inkscape:window-height="1025"
     inkscape:window-x="0"
     inkscape:window-y="27"
     inkscape:window-maximized="1"
     fit-margin-top="1"
     fit-margin-left="1"
     fit-margin-right="1"
     fit-margin-bottom="1"
     lock-margins="true" />
  <metadata
     id="metadata5">
    <rdf:RDF>
      <cc:Work
         rdf:about="">
        <dc:format>image/svg+xml</dc:format>
        <dc:type
           rdf:resource="http://purl.org/dc/dcmitype/StillImage" />
        <dc:title></dc:title>
      </cc:Work>
    </rdf:RDF>
  </metadata>
  <g
     inkscape:label="Layer 1"
     inkscape:groupmode="layer"
     id="layer1"
     transform="translate(6.3952496,2.5838246)">
    <path
       style="fill:#000000;stroke-width:0.956469;stroke-linecap:round;stroke-linejoin:bevel;stroke-opacity:0.986972"
       id="path830"
       d="m 5.5045974,10.266231 c 0.1112891,0.182402 0.2321899,0.359278 0.3338669,0.547208 0.9779817,1.807604 1.5952634,3.79785 2.2589865,5.734067 0.5322001,1.649487 1.1415879,3.27231 1.7053764,4.910801 0.2528898,0.661834 0.5118708,1.31998 0.7447718,1.988996 0.04106,0.10682 0.08435,0.246954 0.161487,0.336301 0.04536,0.05254 0.09103,0.133226 0.160442,0.132747 1.30356,-0.009 2.610782,-0.02678 3.907465,-0.160791 0.105124,-0.01086 0.122838,-0.172151 0.179181,-0.261564 0.06751,-0.107128 0.128091,-0.218464 0.192137,-0.327696 0.512323,-0.980518 0.694381,-2.088253 0.925151,-3.159337 0.2115,-0.903902 0.364577,-1.820479 0.566564,-2.726326 0.09522,-0.427029 0.204671,-0.850761 0.30626,-1.27632 0.246526,-0.892804 0.527713,-1.777411 0.843817,-2.648159 0.161726,-0.505561 0.311135,-1.014625 0.466729,-1.522043 0.139355,-0.350177 0.294673,-0.692073 0.424776,-1.046072 0.135428,-0.291012 0.249686,-0.591513 0.404408,-0.8734958 0.09834,-0.1035679 0.116377,-0.3310575 0.213955,-0.4296724 0.02193,-0.022159 0.12063,-0.028322 0.08948,-0.027207 -3.649548,0.130706 -4.826141,0.6053772 -3.578821,0.1157396 0.0495,0.031824 0.107194,0.053555 0.148496,0.095471 0.359045,0.3643896 0.497377,1.1173476 0.608228,1.5982596 0.155695,0.798006 0.300928,1.598993 0.373211,2.409233 0.06741,0.787708 0.211196,1.565225 0.324201,2.346914 0.110838,0.811799 0.379408,1.586652 0.610943,2.368921 0.176395,0.631738 0.383786,1.253865 0.604321,1.871322 0.268209,0.621136 0.560112,1.230554 0.812834,1.858328 0.277154,0.701172 0.547189,1.405608 0.808263,2.113 0.04164,0.08702 0.07306,0.179721 0.124936,0.261053 0.730235,1.144816 2.721066,0.230035 4.072482,0.09765 0.118355,-0.01159 0.124796,-0.202883 0.177349,-0.309562 0.154948,-0.314532 0.208588,-0.51266 0.322913,-0.850284 0.311038,-1.011584 0.527704,-2.050642 0.739353,-3.086974 0.158053,-0.90186 0.278494,-1.809539 0.413249,-2.715041 0.221336,-1.338575 0.661072,-2.625266 1.156573,-3.883719 0.291195,-0.750891 0.645197,-1.473814 1.002527,-2.194563 0,0 -3.256131,-0.138844 -3.256131,-0.138844 v 0 c -0.305128,0.739818 -0.625698,1.472697 -0.932109,2.21199 -0.529017,1.299003 -1.15356,2.574188 -1.47765,3.944425 -0.17981,0.898142 -0.243194,1.812823 -0.400498,2.715067 -0.149758,1.024597 -0.339099,2.048788 -0.745055,3.007836 -0.150006,0.290891 -0.221439,0.495835 -0.460986,0.722054 -0.0667,0.06299 -0.325484,0.138519 -0.233965,0.144974 1.163956,0.0821 2.333433,0.04278 3.499504,0.08537 0.0691,0.0025 -0.140493,0.0612 -0.20447,0.03497 -0.07911,-0.03244 -0.115159,-0.126422 -0.172738,-0.189633 C 23.407508,23.40684 23.12231,22.70323 22.862806,21.99414 22.645764,21.365861 22.418476,20.740899 22.152306,20.131463 21.909195,19.515352 21.625309,18.917058 21.41393,18.288827 21.18054,17.524711 20.997184,16.747612 20.833221,15.965753 20.693431,15.193347 20.621279,14.411572 20.506052,13.635461 20.390964,12.818454 20.300563,11.997885 20.137322,11.188393 19.990986,10.517078 19.86978,9.8325513 19.594797,9.1987565 18.806488,7.9186195 19.46991,8.8778928 15.588844,9.1722492 c -0.0037,2.91e-4 -0.231047,0.5031909 -0.261651,0.5594543 -0.153577,0.3010405 -0.299257,0.6075495 -0.405519,0.9289735 -0.120557,0.359466 -0.297478,0.697638 -0.380253,1.070454 -0.132662,0.504508 -0.245669,1.013701 -0.376823,1.518692 -0.214937,0.885515 -0.369802,1.784557 -0.557983,2.67593 -0.319247,1.32718 -0.511321,2.681804 -0.868878,4.000642 -0.166112,0.59892 -0.324614,1.197935 -0.540797,1.78135 -0.11181,0.301742 -0.230105,0.603477 -0.395638,0.881038 -0.07242,0.121432 -0.161998,0.231769 -0.242998,0.347654 -0.08092,0.08571 -0.150768,0.183431 -0.242759,0.257133 -0.078,0.06249 -0.361253,0.142038 -0.261425,0.146813 1.185601,0.05671 2.37465,-0.03129 3.560852,0.01102 0.05684,0.002 -0.07553,0.09279 -0.129296,0.111353 -0.120443,0.04158 -0.178242,-0.10967 -0.221796,-0.171234 -0.357555,-0.655909 -0.724032,-1.307083 -1.067529,-1.970569 -0.82134,-1.601731 -1.645729,-3.205376 -2.337456,-4.868445 -0.154834,-0.414502 -0.319871,-0.825335 -0.464503,-1.243506 -0.5721145,-1.654141 -1.0147314,-3.36158 -1.2488917,-5.097216 0,0 -3.6409029,0.15445 -3.6409029,0.15445 z" />
    <path
       style="fill:#000000;stroke-width:0.956469;stroke-linecap:round;stroke-linejoin:bevel;stroke-opacity:0.986972"
       id="path832"
       d="m 32.279127,19.667606 c 0.612637,-0.523352 1.223914,-1.045583 1.867894,-1.530435 0.582827,-0.482781 1.298769,-0.805126 1.836026,-1.344409 0.0763,-0.07659 0.141219,-0.163737 0.211828,-0.245606 0.212445,-0.324297 0.453798,-0.844537 0.270351,-1.237487 -0.04429,-0.09488 -0.121263,-0.170745 -0.181895,-0.256118 -0.07885,-0.06172 -0.151924,-0.131635 -0.236548,-0.18517 -1.294755,-0.819107 -4.295347,-0.249351 -4.971653,-0.227527 -0.0889,0.08484 -0.185984,0.161857 -0.266682,0.254529 -0.253077,0.290626 -0.403987,0.570469 -0.600662,0.906391 -0.429916,0.734298 -0.819264,1.487575 -1.208876,2.243749 -0.402521,0.86881 -1.020678,1.992655 -0.300956,2.88581 0.400402,0.496887 0.971886,0.726023 1.513494,1.015136 1.327531,0.560318 2.742281,0.882719 4.165039,1.085084 1.58492,0.181178 0.403989,0.05799 4.191418,0.05063 0.210039,-3.97e-4 0.255852,-0.02421 0.44718,-0.07443 0,0 -3.720489,-0.519202 -3.720489,-0.519202 v 0 c -0.116964,0.01057 -0.469059,0.02117 -0.351621,0.02216 3.866722,0.0325 4.362855,0.05191 2.908067,0.0054 -1.540938,-0.09736 -3.089685,-0.314667 -4.52669,-0.907282 -0.587584,-0.313808 -1.361797,-0.636864 -1.593992,-1.341322 -0.230304,-0.698729 0.142867,-1.442644 0.387387,-2.069444 0.145444,-0.265075 0.278947,-0.53706 0.436332,-0.795226 0.297863,-0.488601 0.638233,-0.948916 1.011841,-1.381899 0.243636,-0.282355 0.512913,-0.573297 0.834281,-0.773284 0.09743,-0.06063 0.210307,-0.09191 0.31546,-0.137869 -1.123892,-0.01131 -2.247902,-0.01397 -3.371675,-0.03393 -0.08606,-0.0015 0.171336,-0.02488 0.257342,-0.02139 0.3372,0.01365 0.680526,0.140575 0.982379,0.279639 0.04672,0.02828 0.102875,0.04494 0.140168,0.08484 0.206034,0.220417 -0.05446,0.68098 -0.178765,0.871918 -0.510435,0.621106 -1.208749,1.038447 -1.839024,1.525711 -0.69827,0.518064 -1.38416,1.092065 -2.190668,1.43261 0,0 3.763709,0.41841 3.763709,0.41841 z" />
    <path
       style="fill:#000000;stroke-width:0.956469;stroke-linecap:round;stroke-linejoin:bevel;stroke-opacity:0.986972"
       id="path834"
       d="m 37.273865,16.387708 c 0.463809,1.033004 0.62204,2.175496 0.77688,3.288517 0.07162,0.787711 0.185015,1.607601 0.03081,2.392818 1.263486,-0.07769 2.549253,0.01562 3.790458,-0.233057 0.171585,-0.03438 -0.01037,-0.349972 -0.0071,-0.524936 0.0041,-0.219739 0.01548,-0.439337 0.02927,-0.658681 0.04687,-0.745348 0.151982,-1.479322 0.258509,-2.217869 0.179332,-1.04119 0.461462,-2.071384 1.023546,-2.97699 0.364527,-0.587314 0.521763,-0.711807 0.97854,-1.20484 0.33986,-0.299535 0.521327,-0.485926 0.894358,-0.723587 0.11289,-0.07192 0.236405,-0.125617 0.354608,-0.188426 0,0 -3.572741,-0.345567 -3.572741,-0.345567 v 0 c -0.345445,0.316447 -0.668864,0.652459 -0.948073,1.030792 -0.479888,0.651125 -0.949812,1.305493 -1.292693,2.043047 -0.340842,0.733168 -0.554726,1.522326 -0.691513,2.316499 -0.117927,0.73894 -0.197583,1.486974 -0.347908,2.22033 -0.04412,0.21525 -0.08803,0.431281 -0.153112,0.641145 -0.0516,0.16639 -0.3658,0.445634 -0.19598,0.484488 1.18481,0.271076 2.422496,0.201366 3.633743,0.302048 -0.124632,-0.30349 -0.136488,-0.574647 -0.166576,-0.901556 -0.0468,-0.508546 -0.12331,-1.014118 -0.234337,-1.512743 -0.220461,-1.094584 -0.431053,-2.201315 -0.39158,-3.323786 0,0 -3.769125,0.09235 -3.769125,0.09235 z" />
    <path
       style="fill:#000000;stroke-width:0.956469;stroke-linecap:round;stroke-linejoin:bevel;stroke-opacity:0.986972"
       id="path836"
       d="m 47.768409,18.749384 c 0.158602,-0.0923 0.208568,-0.125352 0.394845,-0.210587 0.544701,-0.249241 1.101276,-0.471606 1.640878,-0.732785 0.270883,-0.131112 0.536702,-0.27244 0.80505,-0.40866 0.8309,-0.443577 1.605158,-0.979605 2.32922,-1.580453 0.325075,-0.269755 0.69411,-0.599376 0.978897,-0.9192 0.102195,-0.11477 0.18946,-0.242011 0.284192,-0.363016 0.05404,-0.100372 0.127867,-0.192388 0.162123,-0.301114 0.404207,-1.282921 -2.709484,-0.700512 -4.099049,-0.646805 -0.153808,0.0059 -0.258395,0.167918 -0.380479,0.261661 -0.182467,0.14011 -0.354891,0.292838 -0.532336,0.439256 -0.238625,0.204568 -0.479918,0.406064 -0.715876,0.613704 -0.943549,0.830318 -1.885508,1.66691 -2.791081,2.538678 -0.281549,0.271036 -0.566566,0.539039 -0.834102,0.823912 -0.228375,0.24317 -0.434938,0.505939 -0.652407,0.758909 -0.304371,0.443126 -0.915529,1.236774 -0.476358,1.821464 0.541295,0.720649 1.98115,0.901758 2.778411,1.069818 1.444611,0.244803 2.902783,0.407797 4.364923,0.49931 0.09159,0.0044 0.183185,0.0088 0.274775,0.01322 0,0 3.593719,-0.56492 3.593719,-0.56492 v 0 c -0.120271,0.002 -0.24054,0.0039 -0.360812,0.0059 -1.65123,3.97e-4 -3.306622,-0.08112 -4.937376,-0.354545 -0.599033,-0.133029 -1.754349,-0.319824 -2.227805,-0.791504 -0.432919,-0.431294 -0.119356,-1.057725 0.07994,-1.497346 0.162732,-0.246289 0.307938,-0.505101 0.488196,-0.738867 1.232032,-1.597729 2.93184,-2.852248 4.655582,-3.868162 0.250716,-0.12031 0.49181,-0.263173 0.752149,-0.360929 0.170662,-0.06408 0.714746,-0.105432 0.533178,-0.1217 -1.120944,-0.100434 -2.249482,-0.08025 -3.373689,-0.132803 -0.04747,-0.0022 0.09826,-0.03828 0.141372,-0.01831 0.123561,0.05724 0.01466,0.309144 0.0065,0.345829 -0.05512,0.108809 -0.101197,0.222694 -0.165364,0.326426 -0.681964,1.102497 -1.822265,1.82766 -2.955997,2.390305 -0.29833,0.127027 -0.592973,0.263083 -0.89499,0.38108 -0.872514,0.340892 -1.781802,0.570857 -2.665817,0.877262 0,0 3.799549,0.445009 3.799549,0.445009 z" />
    <path
       style="fill:#000000;stroke-width:0.956469;stroke-linecap:round;stroke-linejoin:bevel;stroke-opacity:0.986972"
       id="path838"
       d="m 53.862107,15.870569 c 0.533815,0.871108 0.902248,1.832366 1.257588,2.786546 0.189693,0.407615 0.238763,0.897121 0.512088,1.267207 0.117687,0.159348 0.3536,0.362293 0.570058,0.368803 1.314225,0.03953 2.629636,5.56e-4 3.944453,8.21e-4 0.243904,-0.03 0.468032,-0.146379 0.708981,-0.187734 0.108569,-0.01863 0.439983,-0.02155 0.329829,-0.02059 -1.086816,0.0095 -2.175169,-0.01597 -3.260246,0.04622 -0.126087,0.0072 0.247486,0.06143 0.359362,0.120029 0.14373,0.07528 0.266555,0.185078 0.399831,0.277617 0.381174,0.284943 0.613209,0.714598 0.947507,1.042776 0.08695,0.08536 0.164555,0.22134 0.286255,0.227338 3.89999,0.192203 3.037438,0.88076 4.309002,-0.39293 0.846378,-1.13239 1.61217,-2.321771 2.404091,-3.492121 0,0 -3.228184,-0.178651 -3.228184,-0.178651 v 0 c -0.693419,1.244142 -1.422595,2.509726 -2.622089,3.335981 -1.420053,0.632219 -0.902862,0.316715 2.721896,0.338504 0.118697,7.15e-4 -0.239176,-0.04332 -0.339932,-0.106071 -0.124796,-0.07773 -0.216313,-0.199365 -0.319164,-0.304422 -0.252272,-0.257688 -0.444055,-0.49031 -0.679421,-0.764334 -0.05978,-0.06783 -0.490768,-0.605272 -0.650293,-0.616638 -2.044179,-0.145638 -2.805702,-0.3022 -4.244443,0.01158 -0.106138,0.02315 -0.210148,0.0562 -0.317122,0.07511 -0.11902,0.02103 -0.239895,0.02967 -0.359843,0.04451 1.070678,0.01308 2.141444,0.02013 3.212031,0.03924 0.101142,0.0018 -0.203129,0.02741 -0.303208,0.01268 -0.09893,-0.01457 -0.200845,-0.04226 -0.283162,-0.09903 -0.381701,-0.263224 -0.506338,-0.798438 -0.72436,-1.172444 -0.369158,-0.890063 -0.693516,-1.807427 -0.807607,-2.769652 0,0 -3.823898,0.109646 -3.823898,0.109646 z" />
    <path
       style="fill:#000000;stroke-width:0.956469;stroke-linecap:round;stroke-linejoin:bevel;stroke-opacity:0.986972"
       id="path840"
       d="m 69.671186,20.373388 c 0.06819,-0.809401 0.366747,-1.582683 0.694928,-2.318682 0.18034,-0.335546 0.383299,-0.620637 0.783373,-0.694591 0.151895,-0.02808 0.617373,-0.02367 0.462928,-0.02099 -3.025045,0.05236 -3.521779,-0.112401 -1.82032,0.230526 0.913884,0.286465 1.779617,0.704069 2.494087,1.353198 0.422235,0.383622 0.716211,0.716189 0.855549,1.280782 0.05668,0.229674 0.02806,0.472296 0.0421,0.708444 -0.06887,0.226899 -0.107014,0.465511 -0.206621,0.680698 -0.328092,0.708796 -1.192157,1.57338 -1.923764,1.871892 -0.156621,0.0639 -0.329015,0.07877 -0.49352,0.118147 -1.744728,-0.0183 1.044903,0.01457 2.678266,-0.04615 0.09269,-0.0034 -0.183994,-0.03175 -0.27051,-0.06518 -0.07528,-0.02908 -0.149365,-0.06722 -0.210008,-0.120469 -0.188097,-0.165167 -0.243519,-0.370099 -0.34527,-0.594256 -0.183319,-0.761118 -0.257035,-1.558784 -0.148582,-2.336145 0.08044,-0.425856 0.223094,-0.837667 0.364551,-1.246634 0,0 -3.745574,-0.120067 -3.745574,-0.120067 v 0 c -0.138542,0.434623 -0.248066,0.880394 -0.247267,1.339797 -0.01198,0.829717 0.0756,1.652409 0.246147,2.464866 0.05198,0.308118 0.05491,0.551814 0.231463,0.817865 0.112329,0.169273 0.364244,0.375532 0.581568,0.384383 3.523368,0.143502 2.681671,0.283685 4.325035,-0.05065 0.144772,-0.07065 0.298736,-0.124952 0.434313,-0.211953 0.645388,-0.414154 1.484667,-1.420638 1.770576,-2.116658 0.103889,-0.252905 0.137843,-0.529164 0.206761,-0.793747 -0.0649,-0.736353 0.0086,-0.954593 -0.430149,-1.598863 -0.168058,-0.246771 -0.393112,-0.451469 -0.615328,-0.650867 -0.71121,-0.638181 -1.56456,-1.083442 -2.421358,-1.488604 -1.946513,-0.635252 -0.855628,-0.360006 -4.77502,-0.302396 -0.196612,0.0029 -0.393189,0.05546 -0.575707,0.128627 -0.429551,0.17219 -0.615325,0.537952 -0.771752,0.940139 -0.304165,0.787427 -0.554734,1.602985 -0.965203,2.343698 0,0 3.794313,0.113844 3.794313,0.113844 z" />
    <path
       style="fill:#000000;stroke-width:0.956469;stroke-linecap:round;stroke-linejoin:bevel;stroke-opacity:0.986972"
       id="path842"
       d="m 77.539206,9.866069 c 0.06378,0.149224 0.138869,0.294104 0.191336,0.44767 0.557186,1.630842 0.603004,3.485918 0.655677,5.191587 -0.0013,0.369324 -7.93e-4,0.738663 -0.0043,1.107973 -0.0031,0.329627 -0.01873,0.659173 -0.01566,0.9888 0.01053,1.13322 0.115187,2.26454 0.153699,3.396839 -0.0039,0.662725 0.07243,1.31995 0.185047,1.971562 0,0 3.583596,-0.09346 3.583596,-0.09346 v 0 C 82.06115,22.257337 81.90754,21.617881 81.811229,20.964095 81.67522,20.204118 81.668518,20.233784 81.577766,19.426703 c -0.109733,-0.975914 -0.07358,-0.837918 -0.155887,-1.836131 -0.152482,-1.849348 -0.03907,-0.09961 -0.154188,-2.095415 -0.07533,-1.897723 -0.138629,-3.803256 0.01463,-5.6988701 0,0 -3.743145,0.069779 -3.743145,0.069779 z" />
    <path
       style="fill:#000000;stroke-width:0.956469;stroke-linecap:round;stroke-linejoin:bevel;stroke-opacity:0.986972"
       id="path844"
       d="M 94.59425,9.6352004 C 94.433735,9.1008429 94.278735,8.5647039 94.032643,8.0622539 93.985558,7.9942665 93.949339,7.9172879 93.891382,7.8582921 93.553461,7.5143108 93.013875,7.5057041 92.569227,7.4701288 92.044799,7.4281706 91.663678,7.4274407 91.139818,7.4161755 90.531221,8.3563652 87.898781,6.8444109 86.66655,7.6889331 86.504543,7.7999658 86.369527,7.9537149 86.264566,8.11972 c -0.400944,0.6341417 -0.434742,1.5825753 -0.522628,2.298308 -0.249664,1.967413 -0.315447,3.947111 -0.357595,5.927263 -0.019,0.882769 0.06742,1.760082 0.267612,2.619833 0.108392,0.465507 0.22311,0.833851 0.3575,1.294308 0.0711,0.237272 0.140732,0.474987 0.213291,0.711816 0.160229,0.522972 0.309063,0.960621 0.450152,1.488971 0.154876,0.579972 0.263072,1.164241 0.351877,1.757056 0.07379,0.506636 0.03463,0.266538 0.115173,0.720669 0,0 3.627956,-0.1035 3.627956,-0.1035 v 0 c -0.180644,-0.435523 -0.08947,-0.202643 -0.269888,-0.700057 -0.438393,-1.305327 -0.88151,-2.612221 -1.172054,-3.96043 -0.298492,-1.270126 -0.602379,-2.54089 -0.741373,-3.841103 -0.02713,-0.271821 -0.06363,-0.542869 -0.0814,-0.815463 -0.109805,-1.685325 -0.02843,-3.386404 0.344403,-5.036641 0.199093,-0.6877955 0.355221,-1.5211324 0.855495,-2.0765558 0.107466,-0.1193131 0.239295,-0.2200704 0.382307,-0.2930901 0.144868,-0.073966 0.62937,-0.1274127 0.467255,-0.1406781 -0.891623,-0.072959 -1.788999,-0.027114 -2.6835,-0.040672 0.659757,0.00317 0.672722,-0.00915 1.311955,0.040275 0.211466,0.016349 0.790824,0.042587 1.00235,0.1582748 0.06073,0.033216 0.105982,0.089075 0.158972,0.133613 0.307028,0.4148003 0.470451,0.8961983 0.44327,1.415429 0,0 3.80855,-0.042146 3.80855,-0.042146 z" />
    <path
       style="fill:#000000;stroke-width:0.956469;stroke-linecap:round;stroke-linejoin:bevel;stroke-opacity:0.986972"
       id="path846"
       d="m 86.553634,19.307273 c 0.236765,-0.06077 0.470345,-0.135674 0.71029,-0.182324 1.898102,-0.369031 3.847767,-0.472789 5.772695,-0.605415 0,0 -2.705158,-0.40534 -2.705158,-0.40534 v 0 c -2.447798,0.245862 -4.897242,0.476048 -7.348358,0.686251 0,0 3.570531,0.506828 3.570531,0.506828 z" />
    <path
       style="fill:#000000;stroke-width:0.956469;stroke-linecap:round;stroke-linejoin:bevel;stroke-opacity:0.986972"
       id="path852"
       d="m 17.826549,35.606809 c 0.01942,-0.07621 0.03241,-0.154355 0.05825,-0.228637 0.0889,-0.25559 0.210167,-0.481015 0.340219,-0.718748 0.304131,-0.555945 0.640701,-1.078714 1.000661,-1.599899 0.772723,-0.967697 1.762039,-1.760193 2.946366,-2.16695 0.322812,-0.110869 1.32837,-0.163693 0.995567,-0.239464 -0.603918,-0.137496 -1.23841,0.0288 -1.857614,0.0432 0.434659,0.116801 0.889726,0.174424 1.303976,0.350399 1.222875,0.519483 2.370596,1.392957 3.312218,2.306013 1.249208,1.211313 2.425443,2.733016 3.300615,4.232195 0.477685,0.818283 0.841675,1.697837 1.262513,2.546755 0.244786,0.825923 0.567461,1.632654 0.734358,2.477765 0.36339,1.840098 0.348229,3.939844 -1.050284,5.379566 -0.998691,1.028118 -2.017977,1.22899 -3.325083,1.722731 -2.292689,0.48921 -2.374519,0.598808 -4.756943,0.726004 -0.774047,0.04133 -1.553309,0.09008 -2.325355,0.0208 -0.10886,-0.0098 0.346773,-0.147913 0.254589,-0.206631 -1.6886,-0.59734 -0.933582,-0.184612 -2.286563,-1.198005 -0.272329,-0.397704 -0.601035,-0.762186 -0.816988,-1.193107 -0.983094,-1.961719 -0.914617,-4.426829 -0.35948,-6.496981 0.144958,-0.540563 0.366974,-1.057455 0.550461,-1.586183 0.677459,-1.407938 0.653164,-1.498023 1.513657,-2.757966 0.244594,-0.358137 0.521166,-0.693354 0.78175,-1.040032 0,0 -2.818774,-0.16211 -2.818774,-0.16211 v 0 c -0.691277,1.267068 -1.383589,2.536272 -1.918327,3.88031 -0.178649,0.540009 -0.393364,1.069395 -0.535948,1.620025 -0.537411,2.075381 -0.637399,4.65736 0.149506,6.686873 0.179277,0.462378 0.468226,0.874355 0.702339,1.311534 0.389522,0.266832 0.739361,0.60375 1.168566,0.8005 1.681051,0.770599 3.885158,0.617233 5.573189,0.647917 0.707053,0.01286 1.415,-0.01775 2.120451,-0.06703 2.417128,-0.168867 2.577166,-0.276521 4.985328,-0.74065 1.360758,-0.451433 2.816532,-0.702252 3.835372,-1.840006 0.850641,-0.949925 0.861957,-2.158716 0.713307,-3.334665 -0.220983,-1.748168 -0.828911,-3.067772 -1.439158,-4.715147 -0.391421,-0.856592 -0.737908,-1.73518 -1.174263,-2.569779 -0.664943,-1.271813 -1.887341,-3.162642 -2.791041,-4.310833 -0.692635,-0.880022 -1.602142,-1.893212 -2.590213,-2.488025 -0.353418,-0.212754 -0.765109,-0.308684 -1.147664,-0.463026 -1.349352,0.0079 -2.701274,-0.05986 -4.048055,0.02379 -0.355099,0.02204 -0.694176,0.165134 -1.02681,0.291372 -1.243419,0.471895 -2.282751,1.335273 -3.178833,2.295248 -0.174041,0.204319 -0.355448,0.402582 -0.522123,0.612952 -0.135803,0.171405 -0.256073,0.354563 -0.384608,0.531484 -0.351459,0.483762 -0.702765,0.967497 -1.045367,1.457595 0,0 3.796236,0.158861 3.796236,0.158861 z" />
    <path
       style="fill:#000000;stroke-width:0.956469;stroke-linecap:round;stroke-linejoin:bevel;stroke-opacity:0.986972"
       id="path854"
       d="m 34.293487,41.79023 c 0.03478,0.107545 0.07773,0.212783 0.104349,0.322633 0.08964,0.369935 0.138018,0.791909 0.178249,1.165667 0.09522,0.884624 0.132023,1.767004 0.158271,2.655853 -0.02001,0.755499 -0.02296,1.514248 -0.106256,2.266506 -0.01388,0.125335 -0.03901,0.249168 -0.05851,0.373753 -0.01,0.06379 -0.09447,0.189296 -0.02994,0.191378 1.295482,0.04178 2.591927,-0.04464 3.88789,-0.06696 0.122328,-0.733771 0.249036,-1.466297 0.3483,-2.203704 0.0424,-0.314997 0.07039,-0.632031 0.121248,-0.945774 0.05688,-0.350925 0.134541,-0.698169 0.201811,-1.047253 0.109794,-0.356502 0.195241,-0.721431 0.329383,-1.069504 0.467828,-1.213929 1.260395,-2.394039 2.395267,-3.076998 0.210706,-0.126801 0.447805,-0.203404 0.671708,-0.305107 1.234443,-0.197363 2.248475,-0.328673 -2.151475,-0.05473 -0.169928,0.01058 0.370274,-0.01299 0.501857,0.09506 0.262437,0.215501 0.461166,0.511032 0.608705,0.816883 0.410454,0.850884 0.481076,1.752676 0.624205,2.66664 0.183343,1.620348 0.08053,3.250059 0.127495,4.875167 0.0073,0.627399 0.08245,1.247286 0.171074,1.867064 0.0053,0.05009 0.01064,0.100174 0.01595,0.150262 0,0 3.789804,-0.134665 3.789804,-0.134665 v 0 c -0.02719,-0.03756 -0.05438,-0.07511 -0.08156,-0.112672 -0.233873,-0.58051 -0.248105,-1.20535 -0.363543,-1.814873 -0.366215,-1.613503 -0.786027,-3.217365 -0.959919,-4.868116 -0.114922,-0.913805 -0.21092,-1.830017 -0.334973,-2.742629 -0.05253,-0.386413 0.005,-0.81299 -0.180776,-1.155853 -0.09015,-0.166359 -0.351026,-0.168749 -0.540153,-0.174517 -3.685201,-0.1124 -2.758238,-0.362069 -4.504941,0.235821 -0.190656,0.126757 -0.394893,0.235146 -0.571966,0.380272 -1.334262,1.093539 -1.997527,2.762351 -2.519359,4.351758 -0.193379,0.662544 -0.373099,1.329148 -0.576372,1.988723 -0.162479,0.527208 -0.279018,0.861311 -0.497301,1.352909 -0.06283,0.141507 -0.121565,0.286335 -0.204732,0.416928 -0.05285,0.08299 -0.132924,0.14509 -0.199386,0.217636 1.230225,0.04559 2.460313,0.09513 3.690678,0.136779 0.05609,0.0019 -0.12991,0.02421 -0.167473,-0.01752 -0.08288,-0.09202 -0.121669,-0.218712 -0.153159,-0.338481 -0.0515,-0.195879 -0.06944,-0.399264 -0.09369,-0.600345 -0.08609,-0.713891 -0.07622,-0.912207 -0.102687,-1.656339 0.01188,-0.889344 0.03621,-1.774177 0.0945,-2.661817 0.02548,-0.387824 0.05005,-0.791297 0.107209,-1.177383 0.01693,-0.114413 0.04495,-0.226914 0.06742,-0.34037 0,0 -3.797218,0.03791 -3.797218,0.03791 z" />
    <path
       style="fill:#000000;stroke-width:0.956469;stroke-linecap:round;stroke-linejoin:bevel;stroke-opacity:0.986972"
       id="path856"
       d="m 47.610239,27.842424 c 0.672931,2.409576 0.886577,4.910857 1.092666,7.394064 0.180874,2.144683 0.174032,4.300204 -0.0072,6.444409 -0.153448,1.815904 -0.429551,3.621873 -0.722662,5.419216 -0.337032,1.770521 -0.595635,3.554857 -0.803833,5.344729 -0.0082,0.119904 -0.01643,0.239805 -0.02463,0.359709 0,0 3.609025,-0.02418 3.609025,-0.02418 v 0 c -0.02389,-0.113495 -0.04776,-0.226994 -0.07164,-0.340489 -0.257805,-1.760742 -0.302276,-3.537051 -0.206433,-5.314016 0.02341,-0.539009 0.04037,-1.078336 0.07026,-1.617025 0.11857,-2.136653 0.137716,-1.615213 0.230841,-3.81867 0.08883,-2.101858 0.05597,-2.167668 0.07647,-4.292696 0.007,-0.722437 0.01937,-1.444813 0.02906,-2.167218 0.05338,-2.08594 0.03449,-1.763868 0.123806,-3.74446 0.05479,-1.215003 0.06244,-2.460119 0.376439,-3.64336 0,0 -3.77221,0 -3.77221,0 z" />
    <path
       style="fill:#000000;stroke-width:0.956469;stroke-linecap:round;stroke-linejoin:bevel;stroke-opacity:0.986972"
       id="path858"
       d="m 53.463746,45.652845 c 0.284737,1.019609 0.09069,2.075572 -0.07072,3.097647 0,0 3.160937,0.04221 3.160937,0.04221 v 0 c 0.116695,-1.053595 0.218144,-2.143019 0.720738,-3.096689 0,0 -3.810952,-0.04317 -3.810952,-0.04317 z" />
    <path
       style="fill:#000000;stroke-width:0.956469;stroke-linecap:round;stroke-linejoin:bevel;stroke-opacity:0.986972"
       id="path860"
       d="m 58.152327,39.708909 c -0.0052,-0.100039 -0.0173,-0.199961 -0.01545,-0.300114 0.01431,-0.768892 0.174339,-1.54297 0.294481,-2.300179 0.08758,-0.507397 0.04529,-0.264205 0.126714,-0.729607 0,0 -3.625111,-0.03347 -3.625111,-0.03347 v 0 c -0.0041,0.458854 0.0019,0.219017 -0.01971,0.71946 -0.07882,0.875239 -0.208928,1.757715 -0.544388,2.575854 0,0 3.78347,0.06805 3.78347,0.06805 z" />
    <path
       style="fill:#000000;stroke-width:0.956469;stroke-linecap:round;stroke-linejoin:bevel;stroke-opacity:0.986972"
       id="path862"
       d="m 58.888469,43.552924 c 0.05597,0.154075 0.125947,0.303758 0.167907,0.462219 0.32589,1.230651 0.283308,2.545009 0.20624,3.802772 -0.0278,0.173455 -0.03313,0.352041 -0.08339,0.520366 -0.02442,0.08176 -0.09108,0.144317 -0.136626,0.216477 1.265918,-0.01257 2.536764,0.07455 3.797755,-0.03773 0.09937,-0.0088 -0.03628,-0.197911 -0.03198,-0.297584 0.0195,-0.452697 0.116467,-0.690222 0.240212,-1.137942 0.336712,-1.051348 0.92881,-2.008346 1.86481,-2.628558 0.625158,-0.414243 0.990859,-0.493557 1.696458,-0.743667 0.638302,-0.16909 1.133147,-0.326758 1.788583,-0.400511 0.2514,-0.02829 1.011415,-0.0319 0.758481,-0.02689 -5.923478,0.117356 -3.114807,-0.251973 -2.327978,0.215649 0.122139,0.07259 0.211344,0.189955 0.317016,0.284932 0.07661,0.154144 0.175212,0.299191 0.229825,0.462429 0.27733,0.828955 0.09067,1.740741 -0.02313,2.580399 0.0052,0.78605 0.02299,1.572212 0.05181,2.357787 0.03392,0.433519 0.01868,0.21826 0.0459,0.645768 0,0 3.64136,-0.03238 3.64136,-0.03238 v 0 c -0.04821,-0.417084 -0.03168,-0.20374 -0.04758,-0.640183 -0.08501,-0.767813 -0.206962,-1.534192 -0.1285,-2.310027 -0.0083,-0.482804 -0.01215,-0.966028 -0.02262,-1.448726 -0.0092,-0.421365 -0.01611,-0.859385 -0.09779,-1.275112 -0.03996,-0.20338 -0.111506,-0.399259 -0.167259,-0.59889 -0.113369,-0.143817 -0.197176,-0.316965 -0.340104,-0.431453 -0.144153,-0.115472 -0.314796,-0.22814 -0.499065,-0.240747 -1.295339,-0.08864 -2.596295,-0.0669 -3.894645,-0.0599 -0.757941,0.0041 -1.602563,0.353555 -2.320671,0.546251 -0.748004,0.285562 -1.135483,0.379394 -1.794918,0.841859 -0.979625,0.68702 -1.530754,1.746798 -2.056622,2.785951 -0.202985,0.45212 -0.321265,0.735296 -0.545544,1.165511 -0.05851,0.112247 -0.313558,0.314857 -0.187883,0.330017 1.250447,0.150861 2.518095,0.06867 3.777141,0.103011 -0.0419,-0.07431 -0.103539,-0.140539 -0.125696,-0.222914 -0.04573,-0.170006 -0.04992,-0.348539 -0.07488,-0.522807 -0.04587,-0.781251 -0.06889,-1.560266 -0.06675,-2.343081 0.0013,-0.48877 0.0038,-1.00403 0.05555,-1.492128 0.01752,-0.165251 0.05348,-0.32802 0.08021,-0.492027 0,0 -3.745619,0.06186 -3.745619,0.06186 z" />
    <path
       style="fill:#000000;stroke-width:0.956469;stroke-linecap:round;stroke-linejoin:bevel;stroke-opacity:0.986972"
       id="path864"
       d="m 76.891576,45.241003 c 0.13131,-0.03896 0.260845,-0.08449 0.393933,-0.116867 0.442497,-0.10764 1.595495,-0.332851 1.951146,-0.408141 1.241634,-0.26285 2.467033,-0.56176 3.690165,-0.899369 0.758687,-0.297307 2.030322,-0.734713 2.158759,-1.715293 0.02111,-0.16111 0.01537,-0.338405 -0.05639,-0.484183 -0.09174,-0.186351 -0.274732,-0.311605 -0.412099,-0.46741 -0.318275,-0.09496 -0.623258,-0.265446 -0.954828,-0.284869 -2.452471,-0.143658 -4.497512,-0.386466 -6.575436,0.885918 -1.107802,0.678347 -1.176768,0.926978 -1.98225,1.907394 -0.180258,0.392221 -0.425987,0.760545 -0.540774,1.176663 -0.213662,0.774539 -0.17926,1.602658 0.254082,2.304635 0.491379,0.795988 1.400765,1.348481 2.214822,1.725663 0.505076,0.234021 1.046554,0.379735 1.569831,0.569602 2.483686,0.713807 5.059767,0.975173 7.625223,1.188953 0,0 2.77859,-0.422113 2.77859,-0.422113 v 0 C 86.350384,50.079615 83.674539,49.896982 81.112943,49.128055 80.080791,48.736098 79.416739,48.584251 78.552645,47.89021 77.641163,47.158105 77.126427,46.1354 77.39155,44.952562 c 0.08745,-0.390168 0.311502,-0.736534 0.467251,-1.104799 0.271558,-0.331251 0.50001,-0.703133 0.814671,-0.993749 0.668036,-0.616987 1.529792,-1.062564 2.398979,-1.311452 0.43954,-0.125857 1.768237,-0.04377 1.35177,-0.232421 -0.584229,-0.264647 -1.28492,-0.08167 -1.923939,-0.02676 -0.223298,0.01918 0.439047,0.09033 0.658569,0.135493 0.102084,0.08786 0.229354,0.153012 0.306255,0.263592 0.141423,0.203358 0.0977,0.457279 -0.0026,0.662106 -0.287513,0.587007 -0.931778,0.840579 -1.485326,1.092965 -0.317992,0.10519 -0.632238,0.222461 -0.953974,0.315574 -1.898637,0.549484 -3.863763,0.792723 -5.828509,0.953161 0,0 3.696893,0.534731 3.696893,0.534731 z" />
    <path
       style="fill:#fa1500;fill-opacity:1;stroke-width:0.956469;stroke-linecap:round;stroke-linejoin:bevel;stroke-opacity:0.986972"
       id="path866"
       d="m 21.840824,53.704866 c 0.01976,0.112154 0.05436,0.222687 0.05928,0.336463 0.05896,1.363398 -0.597924,2.778387 -1.364003,3.867393 -0.292946,0.41643 -0.643732,0.789014 -0.965598,1.183521 -1.048299,1.095452 -2.274477,1.974278 -3.581512,2.731122 -0.345163,0.199869 -0.702918,0.377155 -1.054377,0.565734 0,0 2.921948,0.300911 2.921948,0.300911 v 0 c 1.498394,-1.033327 2.97505,-2.110825 4.251754,-3.417491 0.362412,-0.402936 0.745813,-0.787942 1.087236,-1.208809 0.819156,-1.009769 1.437292,-2.115034 1.990391,-3.28449 0.110674,-0.234006 0.222903,-0.467567 0.32115,-0.707054 0.04887,-0.119126 0.07972,-0.244867 0.119588,-0.3673 0,0 -3.785855,0 -3.785855,0 z" />
    <path
       style="fill:#fa1500;fill-opacity:1;stroke-width:0.956469;stroke-linecap:round;stroke-linejoin:bevel;stroke-opacity:0.986972"
       id="path868"
       d="m 14.851503,54.943529 c 0.93837,0.380881 1.510603,1.215937 2.079866,2.009182 1.317318,2.045065 2.468095,4.216561 3.231293,6.533211 0.179122,0.543716 0.314641,1.100841 0.471962,1.651262 0.272391,1.38603 0.371114,1.619869 0.446991,2.988217 0.08096,1.460058 -0.07962,2.924186 -0.224266,4.374449 -0.06854,0.785622 -0.159181,1.570683 -0.299675,2.347047 -0.04367,0.241295 -0.117736,0.653108 -0.231142,0.891852 -0.04101,0.08633 -0.109948,0.156361 -0.164923,0.23454 -0.204357,0.122822 -0.205242,0.149715 -0.450414,0.18682 -0.09637,0.01458 -0.38933,0.01889 -0.291869,0.01767 1.05734,-0.01331 2.11646,0.01222 3.171815,-0.0539 0.16195,-0.01016 -0.320886,-0.05864 -0.472975,-0.115212 -0.176041,-0.06548 -0.337058,-0.165839 -0.505588,-0.248759 -0.945199,-0.597622 -1.637629,-1.482095 -2.302926,-2.362663 0,0 -3.470154,0.232492 -3.470154,0.232492 v 0 c 0.727843,0.881745 1.454484,1.770843 2.358956,2.482355 0.147926,0.108016 0.287843,0.227955 0.443777,0.324046 1.276826,0.786836 3.021912,0.26339 4.380735,0.240419 0.177969,-0.003 0.47568,-0.167211 0.599955,-0.289187 0.07528,-0.07389 0.121364,-0.172574 0.182046,-0.258863 0.02974,-0.108622 0.07311,-0.214405 0.08923,-0.325869 0.03022,-0.208997 0.01117,-0.752208 0.0076,-0.932413 -0.01549,-0.783727 -0.02506,-1.567788 0.02931,-2.35068 0.03037,-1.053846 0.07581,-2.117291 -0.0188,-3.169642 -0.130746,-1.454269 -0.492048,-2.873182 -0.863788,-4.280442 -0.161034,-0.554657 -0.314033,-1.111708 -0.483104,-1.663967 -0.689778,-2.253107 -1.520751,-4.464315 -2.462807,-6.623646 -0.329604,-0.684016 -0.644234,-1.436557 -1.167611,-2.004126 -0.01881,-0.0204 -0.236446,-0.197913 -0.28153,-0.234876 0,0 -3.801965,0.400685 -3.801965,0.400685 z" />
    <path
       style="fill:#fa1500;fill-opacity:1;stroke-width:0.956469;stroke-linecap:round;stroke-linejoin:bevel;stroke-opacity:0.986972"
       id="path870"
       d="m 18.67828,65.628507 c -0.01252,0.08355 -0.01184,0.170188 -0.03757,0.250661 -0.105319,0.329366 -0.300508,0.637659 -0.495985,0.916524 -0.347116,0.495189 -0.696098,0.908683 -1.132748,1.333085 -0.236701,0.230061 -0.495177,0.4366 -0.742765,0.654899 0,0 3.037989,0.256469 3.037989,0.256469 v 0 c 0.732642,-0.661609 1.479852,-1.309957 2.158351,-2.028478 0.281924,-0.298554 0.594109,-0.655466 0.82593,-1.001914 0.06608,-0.09875 0.115061,-0.20792 0.172592,-0.31188 0,0 -3.785795,-0.06937 -3.785795,-0.06937 z" />
    <path
       style="fill:#fa1500;fill-opacity:1;stroke-width:0.956469;stroke-linecap:round;stroke-linejoin:bevel;stroke-opacity:0.986972"
       id="path880"
       d="m 27.39803,58.289595 c 1.156695,-0.316407 2.364157,-0.389165 3.557475,-0.413864 -4.133005,0.03227 -2.970544,-0.02866 -1.914243,0.05047 0.221931,0.01662 0.865219,0.0586 1.0661,0.203763 0.05195,0.03754 0.06734,0.10907 0.101004,0.163603 0.01295,0.144073 0.04213,0.287599 0.03886,0.432215 -0.02534,1.123553 -0.529407,2.162493 -0.961802,3.175558 -0.240797,0.593236 -0.138856,0.301461 -0.311432,0.873345 0,0 3.55529,0.08265 3.55529,0.08265 v 0 c 0.09053,-0.541034 0.03504,-0.260144 0.171049,-0.841756 0.156811,-0.584923 0.142644,-0.562692 0.343603,-1.172877 0.229042,-0.69546 0.508937,-1.381242 0.680947,-2.094434 0.04526,-0.187674 0.06916,-0.379862 0.103745,-0.569793 -0.03632,-0.158213 -0.01528,-0.342062 -0.108948,-0.474636 -0.09851,-0.139417 -0.676521,-0.228158 -0.782382,-0.242507 -1.704534,-0.23105 -3.469481,0.189558 -5.155741,-0.07776 -1.383858,0.06143 -2.762141,0.196001 -4.134784,0.382778 0,0 3.751255,0.523251 3.751255,0.523251 z" />
    <path
       style="fill:#fa1500;fill-opacity:1;stroke-width:0.956469;stroke-linecap:round;stroke-linejoin:bevel;stroke-opacity:0.986972"
       id="path882"
       d="m 27.871134,61.520322 c 0.78593,-0.486334 1.74974,-0.426961 2.637447,-0.414047 0.178181,0.0013 0.356362,0.0024 0.534544,0.0036 0,0 -3.432352,-0.542999 -3.432352,-0.542999 v 0 c -0.158584,0.0019 -0.317167,0.0036 -0.475751,0.0054 -1.05033,0.01797 -2.032204,0.0787 -2.999472,0.533289 0,0 3.735584,0.414732 3.735584,0.414732 z" />
    <path
       style="fill:#fa1500;fill-opacity:1;stroke-width:0.956469;stroke-linecap:round;stroke-linejoin:bevel;stroke-opacity:0.986972"
       id="path884"
       d="m 27.781875,64.483771 c 0.995588,-0.04301 1.985731,-0.159954 2.972024,-0.297455 0,0 -3.302575,-0.474522 -3.302575,-0.474522 v 0 c -1.124853,0.169471 -2.258315,0.255979 -3.396396,0.181687 0,0 3.726947,0.59029 3.726947,0.59029 z" />
    <path
       style="fill:#fa1500;fill-opacity:1;stroke-width:0.956469;stroke-linecap:round;stroke-linejoin:bevel;stroke-opacity:0.986972"
       id="path886"
       d="m 23.72453,59.096818 c 0.756913,1.43724 0.968193,3.080946 1.169913,4.670054 0.199528,1.853057 0.261773,3.715695 0.366119,5.575374 0.03606,0.775814 0.184645,1.537264 0.314295,2.300507 0.05925,0.236424 0.0087,1.005383 0.208453,1.149255 0.126291,0.09098 0.291546,0.109114 0.437319,0.163671 1.364958,-0.08026 2.742707,-0.03781 4.094872,-0.240789 0.311047,-0.04669 0.539734,-0.323379 0.803618,-0.494538 0.962115,-0.624036 1.867018,-1.315768 2.768981,-2.022168 0,0 -3.013407,-0.262639 -3.013407,-0.262639 v 0 c -0.238378,0.218763 -0.464125,0.452141 -0.715134,0.656289 -0.608725,0.49508 -1.302247,0.961868 -2.016759,1.289941 -0.357795,0.164285 -1.485604,0.28243 -1.110547,0.402175 0.876243,0.27976 1.837799,0.08226 2.756699,0.123396 -0.08706,0.04383 -0.165907,0.110903 -0.261179,0.131482 -0.03982,0.0086 -0.08778,-0.01762 -0.11104,-0.05108 -0.03377,-0.04855 -0.03107,-0.114155 -0.04403,-0.17185 -0.0555,-0.247028 -0.09708,-0.497403 -0.160402,-0.742775 -0.16657,-0.766519 -0.363115,-1.525379 -0.578273,-2.279838 -0.432658,-1.822786 -0.756182,-3.676536 -0.831049,-5.551792 -0.07681,-1.587849 -0.193679,-3.171309 -0.323071,-4.755433 0,0 -3.755381,0.110758 -3.755381,0.110758 z" />
    <path
       style="fill:#fa1500;fill-opacity:1;stroke-width:0.956469;stroke-linecap:round;stroke-linejoin:bevel;stroke-opacity:0.986972"
       id="path888"
       d="m 32.526386,65.808254 c -0.256806,0.236614 -0.105844,0.113697 -0.46476,0.353674 0,0 3.554524,0.370168 3.554524,0.370168 v 0 c 0.487153,-0.257783 0.250971,-0.137914 0.707628,-0.361408 0,0 -3.797392,-0.362434 -3.797392,-0.362434 z" />
    <path
       style="fill:#fa1500;fill-opacity:1;stroke-width:0.956469;stroke-linecap:round;stroke-linejoin:bevel;stroke-opacity:0.986972"
       id="path890"
       d="m 28.098327,67.344788 c 0.233346,0.177397 0.501688,0.39784 0.772167,0.501089 0.918759,0.35071 2.006629,0.526446 2.958031,0.676153 1.269098,0.199697 2.729229,0.356248 4.006146,0.504433 0.567046,0.06285 1.134092,0.125693 1.701138,0.18854 0,0 2.335671,-0.346491 2.335671,-0.346491 v 0 c -0.618376,-0.05378 -1.23675,-0.107558 -1.855126,-0.161337 -1.393241,-0.167675 -2.290044,-0.241544 -3.648627,-0.531583 -0.435617,-0.093 -0.868212,-0.204581 -1.29127,-0.343987 -0.468329,-0.154321 -0.889848,-0.336828 -1.165397,-0.749292 0,0 -3.812733,0.262475 -3.812733,0.262475 z" />
    <path
       style="fill:#fa1500;fill-opacity:1;stroke-width:0.956469;stroke-linecap:round;stroke-linejoin:bevel;stroke-opacity:0.986972"
       id="path898"
       d="m 27.712418,54.439151 c -0.608527,0.601374 -1.260743,1.158449 -1.901833,1.724948 0,0 3.397707,0.28161 3.397707,0.28161 v 0 c 0.678343,-0.651616 1.406407,-1.255073 2.275752,-1.637427 0,0 -3.771626,-0.369131 -3.771626,-0.369131 z" />
    <path
       style="fill:#fa1500;fill-opacity:1;stroke-width:0.956469;stroke-linecap:round;stroke-linejoin:bevel;stroke-opacity:0.986972"
       id="path944"
       d="m 67.712188,58.201006 c -0.04824,0.06753 -0.08766,0.142319 -0.144711,0.202589 -0.968772,1.023458 -2.596851,1.667613 -3.866841,2.221116 -0.688168,0.302435 -1.390726,0.569664 -2.092835,0.837345 0,0 3.405216,0.396352 3.405216,0.396352 v 0 c 0.573659,-0.290098 1.13945,-0.594625 1.711008,-0.888887 1.270061,-0.631354 0.489635,-0.248282 1.869768,-0.912534 0.85026,-0.409226 1.797629,-0.822341 2.566448,-1.380078 0.126865,-0.09203 0.231888,-0.21092 0.347831,-0.316383 0,0 -3.795884,-0.15952 -3.795884,-0.15952 z" />
    <path
       style="fill:#fa1500;fill-opacity:1;stroke-width:0.956469;stroke-linecap:round;stroke-linejoin:bevel;stroke-opacity:0.986972"
       id="path946"
       d="m 61.321082,58.503205 c 1.664515,0.50958 3.297868,1.121397 4.906344,1.785615 1.075928,0.471813 0.559141,0.248523 1.549783,0.671208 0,0 3.174876,-0.385556 3.174876,-0.385556 v 0 c -1.151554,-0.389705 -0.557056,-0.179208 -1.782101,-0.635389 -1.396976,-0.56452 -2.7861,-1.158613 -4.111966,-1.877383 0,0 -3.736936,0.441505 -3.736936,0.441505 z" />
    <path
       style="fill:#fa1500;fill-opacity:1;stroke-width:0.956469;stroke-linecap:round;stroke-linejoin:bevel;stroke-opacity:0.986972"
       id="path952"
       d="m 64.951441,65.748822 c 1.062974,-0.193937 2.148644,-0.256114 3.224919,-0.345609 0.850085,-0.07146 1.69138,-0.215336 2.539336,-0.304342 0.456035,-0.06071 0.92339,-0.07711 1.374904,-0.167476 0.574604,-0.09192 1.158992,-0.07109 1.73731,-0.121288 0,0 -3.619577,-0.545393 -3.619577,-0.545393 v 0 c -0.610597,0.03832 -1.225113,0.0475 -1.830901,0.138546 -0.431622,0.05033 -0.860835,0.11965 -1.292693,0.168362 -0.750694,0.11724 -1.49769,0.259689 -2.254742,0.334121 -1.211561,0.131969 -2.42779,0.199271 -3.640656,0.315164 0,0 3.7621,0.527915 3.7621,0.527915 z" />
    <path
       style="fill:#fa1500;fill-opacity:1;stroke-width:0.956469;stroke-linecap:round;stroke-linejoin:bevel;stroke-opacity:0.986972"
       id="path956"
       d="m 65.329885,63.385008 c 1.053743,1.738659 1.407128,3.839927 1.526344,5.842469 0.03376,0.567102 0.01212,1.13615 0.01818,1.704226 -0.04038,1.186304 -0.102804,2.381411 -0.348689,3.546425 -0.04586,0.217273 -0.114543,0.429095 -0.171815,0.643643 0,0 3.342126,0.03295 3.342126,0.03295 v 0 c -0.08989,-1.414351 -0.277487,-2.819892 -0.392157,-4.232391 -0.03788,-0.569868 -0.08901,-1.139008 -0.113639,-1.709603 -0.02617,-0.606584 -0.02614,-1.214017 -0.03872,-1.821034 -0.02855,-1.376421 -0.04146,-2.752191 -0.02558,-4.128866 0,0 -3.79603,0.122182 -3.79603,0.122182 z" />
    <path
       style="fill:#fa1500;fill-opacity:1;stroke-width:0.956469;stroke-linecap:round;stroke-linejoin:bevel;stroke-opacity:0.986972"
       id="path964"
       d="m 64.891706,67.159017 c -1.055828,2.101591 -2.57048,3.931179 -4.088929,5.710835 -0.264337,0.283938 -0.528672,0.567876 -0.793009,0.851813 0,0 2.944092,0.201226 2.944092,0.201226 v 0 c 0.201594,-0.289382 0.403188,-0.578765 0.604782,-0.868148 0.594249,-0.812456 1.011598,-1.406123 1.660232,-2.191848 0.849775,-1.02938 1.762193,-2.043242 2.744618,-2.949387 0.18466,-0.170323 0.385506,-0.322215 0.578257,-0.483325 0,0 -3.650043,-0.271166 -3.650043,-0.271166 z" />
    <path
       style="fill:#fa1500;fill-opacity:1;stroke-width:0.956469;stroke-linecap:round;stroke-linejoin:bevel;stroke-opacity:0.986972"
       id="path966"
       d="m 66.176335,68.552215 c 0.09965,0.07926 0.203046,0.154027 0.298942,0.237792 0.361264,0.315568 0.5695,0.559181 0.949229,0.878411 0.558311,0.469355 1.136354,0.890598 1.769872,1.256136 0.406321,0.234442 0.833036,0.431609 1.249553,0.647414 0.399434,0.197228 0.798867,0.394459 1.198301,0.591688 0,0 2.741388,-0.306996 2.741388,-0.306996 v 0 C 73.98707,71.66389 73.59052,71.471122 73.193971,71.278352 72.840458,71.06631 72.475482,70.872301 72.133434,70.64222 71.22528,70.031344 70.44958,69.231041 69.938247,68.259729 c 0,0 -3.761912,0.292486 -3.761912,0.292486 z" />
    <path
       style="fill:#fa1500;fill-opacity:1;stroke-width:0.956469;stroke-linecap:round;stroke-linejoin:bevel;stroke-opacity:0.986972"
       id="path968"
       d="m 68.404727,62.718637 c 0.423077,0.192759 0.782751,0.487614 1.145003,0.772583 0,0 3.477961,-0.309142 3.477961,-0.309142 v 0 c -0.303562,-0.25699 -0.624808,-0.504203 -0.853533,-0.835059 0,0 -3.769431,0.371618 -3.769431,0.371618 z" />
    <path
       style="fill:#fa1500;fill-opacity:1;stroke-width:0.956469;stroke-linecap:round;stroke-linejoin:bevel;stroke-opacity:0.986972"
       id="path970"
       d="m 72.109603,57.926384 c 0.07732,0.183478 0.148272,0.298342 0.122938,0.517174 -0.05764,0.497861 -0.430601,0.87463 -0.740489,1.230492 0,0 3.426399,0.236731 3.426399,0.236731 v 0 c 0.494972,-0.632029 1.012296,-1.229334 1.011592,-2.076929 0,0 -3.82044,0.09253 -3.82044,0.09253 z" />
    <path
       style="fill:#fa1500;fill-opacity:1;stroke-width:0.956469;stroke-linecap:round;stroke-linejoin:bevel;stroke-opacity:0.986972"
       id="path972"
       d="m 76.702801,57.938621 c 0.932905,-0.134792 1.869966,-0.268673 2.810854,-0.332787 -1.063374,0.01632 -2.126747,0.03267 -3.190121,0.04901 0.08559,0.03724 0.185814,0.05109 0.256791,0.111723 0.07415,0.06334 0.133498,0.150931 0.160409,0.244665 0.150604,0.524534 -0.177765,1.055018 -0.393583,1.499243 -0.173678,0.357553 -0.433856,0.662871 -0.627214,1.008227 -0.07477,0.133551 -0.167013,0.26525 -0.19495,0.415737 -0.02622,0.141277 -0.02363,0.299617 0.03805,0.429392 0.187293,0.393999 0.536379,0.460918 0.896273,0.620557 0.564979,0.17572 1.148308,0.256561 1.733225,0.326231 0,0 3.405002,-0.509389 3.405002,-0.509389 v 0 c -0.575397,-0.03185 -1.149379,-0.07439 -1.708229,-0.228775 -0.107138,-0.0355 -0.58484,-0.167904 -0.70593,-0.286628 -0.359309,-0.35229 0.364408,-1.294688 0.493874,-1.617284 0.334172,-0.620131 0.945566,-1.523958 0.509241,-2.250369 -0.720418,-1.199372 -5.285729,0.204814 -4.184009,-0.333981 -0.992085,0.127016 -1.98554,0.289192 -2.989146,0.270079 0,0 3.689458,0.584353 3.689458,0.584353 z" />
    <path
       style="fill:#fa1500;fill-opacity:1;stroke-width:0.956469;stroke-linecap:round;stroke-linejoin:bevel;stroke-opacity:0.986972"
       id="path974"
       d="m 76.262791,64.868911 c 1.277128,-0.240051 2.590247,-0.244478 3.886158,-0.275019 1.287531,-0.01117 3.977436,-0.06836 -1.953821,-5.29e-4 -0.0925,0.0011 0.185102,0.0073 0.27687,0.019 0.229246,0.02918 0.184918,0.03009 0.372785,0.154596 0.02828,0.106947 0.08907,0.210296 0.08485,0.320842 -0.02812,0.736166 -0.35714,1.410332 -0.781659,2.004811 -0.835668,1.170239 -1.914377,2.068452 -3.060364,2.917114 -0.587216,0.434861 -1.216485,0.80986 -1.824728,1.214792 0,0 2.045793,0.196929 2.045793,0.196929 v 0 c 0.885468,-0.653947 2.746047,-2.016064 3.564273,-2.673144 0.599298,-0.481269 1.188387,-0.976079 1.757744,-1.492422 0.748596,-0.678891 1.472314,-1.232503 1.832554,-2.182092 0.06576,-0.173337 0.03343,-0.369269 0.05015,-0.553906 -0.05671,-0.104785 -0.08658,-0.229409 -0.170127,-0.314362 -0.142507,-0.144899 -0.436141,-0.165504 -0.61387,-0.166875 -1.625264,-0.01252 -3.232346,-0.052 -4.848032,0.05018 -1.451618,0.07624 -2.906265,0.11821 -4.353994,0.251595 0,0 3.735417,0.528555 3.735417,0.528555 z" />
    <path
       style="fill:#fa1500;fill-opacity:1;stroke-width:0.956469;stroke-linecap:round;stroke-linejoin:bevel;stroke-opacity:0.986972"
       id="path976"
       d="m 71.545442,66.984141 c 0.196406,0.0673 0.395317,0.12768 0.589217,0.201887 1.703445,0.651931 3.361668,1.425827 5.079589,2.040433 0.914117,0.327035 1.83465,0.639193 2.768489,0.904724 0.949106,0.269872 1.917436,0.46686 2.876153,0.700291 3.355616,0.5275 1.749047,0.334269 4.815848,0.610875 0,0 1.850864,-0.27972 1.850864,-0.27972 v 0 c -3.435869,-0.186351 -1.677437,-0.0218 -5.273067,-0.516887 -0.907311,-0.234921 -1.831009,-0.413822 -2.721938,-0.704768 -2.253575,-0.735941 -4.425299,-1.924418 -6.282967,-3.397875 0,0 -3.702188,0.44104 -3.702188,0.44104 z" />
    <path
       style="fill:#fa1500;fill-opacity:1;stroke-width:0.956469;stroke-linecap:round;stroke-linejoin:bevel;stroke-opacity:0.986972"
       id="path1000"
       d="m 48.569748,58.456975 c 0.02111,0.304342 0.0764,0.608232 0.06338,0.913032 -0.04977,1.164548 -0.304475,2.372532 -0.610579,3.486957 -0.436148,1.587868 -0.921938,2.903178 -1.617454,4.397984 -0.313465,0.673704 -0.683146,1.319795 -1.024718,1.979692 -0.816049,1.448224 -1.760863,2.81635 -2.843779,4.077055 -0.233709,0.272076 -0.483703,0.529733 -0.725554,0.794602 0,0 3.027763,0.195585 3.027763,0.195585 v 0 c 0.956781,-1.601343 1.807461,-3.261799 2.540733,-4.97835 0.926618,-2.130573 1.835174,-4.268745 2.763435,-6.398612 0.4127,-0.946923 1.077841,-2.512322 1.577084,-3.475564 0.164883,-0.318125 0.364386,-0.617075 0.546581,-0.925613 0,0 -3.696888,-0.06677 -3.696888,-0.06677 z" />
    <path
       style="fill:#fa1500;fill-opacity:1;stroke-width:0.956469;stroke-linecap:round;stroke-linejoin:bevel;stroke-opacity:0.986972"
       id="path1006"
       d="m 48.043217,66.887635 c 0.148534,0.137176 0.298317,0.273016 0.445608,0.41153 0.522269,0.491144 0.647851,0.642583 1.226685,1.113402 0.725377,0.590018 1.250067,0.934503 2.027317,1.503513 0.479513,0.351041 0.954868,0.707726 1.432304,1.061588 0.445574,0.371697 0.891148,0.743394 1.336722,1.115089 0,0 2.405026,-0.208849 2.405026,-0.208849 v 0 c -0.431054,-0.373568 -0.86211,-0.747133 -1.293167,-1.120698 -0.390102,-0.374039 -1.580626,-1.516846 -2.033836,-1.947011 -0.690785,-0.655656 -1.460477,-1.281491 -1.873645,-2.162202 0,0 -3.673014,0.233638 -3.673014,0.233638 z" />
  </g>
</svg>
