<?xml version="1.0" encoding="UTF-8" standalone="no"?>
<svg
   inkscape:version="1.0.2 (1.0.2+r75+1)"
   sodipodi:docname="werewolf-icons.svg"
   id="svg186"
   viewBox="0 0 100 100"
   version="1.1"
   height="100"
   width="100"
   xmlns:inkscape="http://www.inkscape.org/namespaces/inkscape"
   xmlns:sodipodi="http://sodipodi.sourceforge.net/DTD/sodipodi-0.dtd"
   xmlns:xlink="http://www.w3.org/1999/xlink"
   xmlns="http://www.w3.org/2000/svg"
   xmlns:svg="http://www.w3.org/2000/svg"
   xmlns:rdf="http://www.w3.org/1999/02/22-rdf-syntax-ns#"
   xmlns:cc="http://creativecommons.org/ns#"
   xmlns:dc="http://purl.org/dc/elements/1.1/">
  <metadata
     id="metadata190">
    <rdf:RDF>
      <cc:Work
         rdf:about="">
        <dc:format>image/svg+xml</dc:format>
        <dc:type
           rdf:resource="http://purl.org/dc/dcmitype/StillImage" />
      </cc:Work>
    </rdf:RDF>
  </metadata>
  <sodipodi:namedview
     pagecolor="#ffffff"
     bordercolor="#666666"
     borderopacity="1"
     objecttolerance="10"
     gridtolerance="10"
     guidetolerance="10"
     inkscape:pageopacity="0"
     inkscape:pageshadow="2"
     inkscape:window-width="1920"
     inkscape:window-height="1016"
     id="namedview188"
     showgrid="false"
     inkscape:zoom="1.1075505"
     inkscape:cx="-194.4653"
     inkscape:cy="-3.3626068"
     inkscape:window-x="0"
     inkscape:window-y="27"
     inkscape:window-maximized="1"
     inkscape:current-layer="svg186"
     inkscape:document-rotation="0"
     inkscape:snap-smooth-nodes="true"
     inkscape:snap-global="false"
     inkscape:pagecheckerboard="0" />
  <defs
     id="defs172">
    <inkscape:path-effect
       effect="slice"
       start_point="-193.89,34.490832"
       end_point="-177.51,100.36012"
       center_point="-183.55258,67.425476"
       id="path-effect1371"
       is_visible="true"
       lpeversion="1"
       allow_transforms="true" />
    <inkscape:path-effect
       effect="bend_path"
       id="path-effect75908"
       is_visible="true"
       lpeversion="1"
       bendpath="m -224.04624,49.653152 h 67.51329"
       prop_scale="1"
       scale_y_rel="false"
       vertical="false"
       hide_knot="false" />
    <inkscape:path-effect
       effect="skeletal"
       id="path-effect1564"
       is_visible="true"
       lpeversion="1"
       pattern="m -50.199088,99.625757 2.744035,3.795453 3.35038,-4.953386 3.037521,3.799076 2.421722,-3.94859 3.952435,6.04244 3.157028,-6.499308 4.204736,5.143868 2.933191,-5.645413 5.669612,4.768443 4.090004,-5.611925 -37.09009,0.203436 z"
       copytype="repeated_stretched"
       prop_scale="1"
       scale_y_rel="false"
       spacing="0"
       normal_offset="1.6"
       tang_offset="0"
       prop_units="false"
       vertical_pattern="false"
       hide_knot="false"
       fuse_tolerance="4.1" />
    <inkscape:path-effect
       effect="skeletal"
       id="path-effect17379"
       is_visible="false"
       lpeversion="1"
       pattern="m -40.325044,95.055805 -0.07087,9.492185 3.1442,-5.81428 1.249549,10.59693 3.182111,-4.79043 2.682444,10.93475 1.554875,-5.04151 3.504977,9.36864 1.819355,-4.6192 3.484404,4.00705 2.152115,-4.33605 5.642174,5.00944 0.549576,-5.98766 5.6952789,5.33705 v -8.78021 l 8.3691794,5.40523 -6.0381549,-8.89311 8.5761295,0.72974 -6.2631292,-7.34338 8.7172783,-2.60073 -5.7876614,-1.295814 z"
       copytype="repeated"
       prop_scale="0.47"
       scale_y_rel="false"
       spacing="0"
       normal_offset="0"
       tang_offset="0"
       prop_units="false"
       vertical_pattern="false"
       hide_knot="false"
       fuse_tolerance="0" />
    <inkscape:path-effect
       effect="skeletal"
       id="path-effect7018"
       is_visible="true"
       lpeversion="1"
       pattern="m -40.325044,95.055805 -0.07087,9.492185 3.1442,-5.81428 1.249549,10.59693 3.182111,-4.79043 2.682444,10.93475 1.554875,-5.04151 3.504977,9.36864 1.819355,-4.6192 3.484404,4.00705 2.152115,-4.33605 5.642174,5.00944 0.549576,-5.98766 5.6952789,5.33705 v -8.78021 l 8.3691794,5.40523 -6.0381549,-8.89311 8.5761295,0.72974 -6.2631292,-7.34338 8.7172783,-2.60073 -5.7876614,-1.295814 z"
       copytype="repeated"
       prop_scale="0.47"
       scale_y_rel="false"
       spacing="0"
       normal_offset="0"
       tang_offset="0"
       prop_units="false"
       vertical_pattern="false"
       hide_knot="false"
       fuse_tolerance="0" />
    <symbol
       id="seer">
      <g
         id="seer_transform"
         transform="matrix(3.774 0 0 3.774 10.871 -.07956)">
        <rect
           x="1.6447"
           y="12.468"
           width="1.1368"
           height="12.001"
           ry=".56842"
           fill="#0edfdf"
           stroke-opacity="0"
           id="rect2" />
        <rect
           x="4.0919"
           y="12.423"
           width="1.1368"
           height="12.001"
           ry=".56842"
           fill="#0edfdf"
           stroke-opacity="0"
           id="rect4" />
        <rect
           x="6.5392"
           y="12.423"
           width="1.1368"
           height="12.001"
           ry=".56842"
           fill="#0edfdf"
           stroke-opacity="0"
           id="rect6" />
        <rect
           x="8.9861"
           y="12.332"
           width="1.1368"
           height="12.001"
           ry=".56842"
           fill="#0edfdf"
           stroke-opacity="0"
           id="rect8" />
        <circle
           cx="3.1134"
           cy="14.604"
           r="3.1943"
           fill="#ffe1cc"
           stroke-opacity="0"
           id="circle10" />
        <circle
           cx="3.1134"
           cy="14.604"
           r="1.9222"
           fill="#ffc49b"
           stroke-opacity="0"
           id="circle12" />
        <rect
           x="11.433"
           y="12.332"
           width="1.1368"
           height="12.001"
           ry=".56842"
           fill="#0edfdf"
           stroke-opacity="0"
           id="rect14" />
        <rect
           x="14.995"
           y="12.56"
           width="1.1368"
           height="12.001"
           ry=".56842"
           fill="#0edfdf"
           stroke-opacity="0"
           id="rect16" />
        <rect
           x="17.442"
           y="12.514"
           width="1.1368"
           height="12.001"
           ry=".56842"
           fill="#0edfdf"
           stroke-opacity="0"
           id="rect18" />
        <circle
           cx="17.623"
           cy="14.683"
           r="3.1943"
           fill="#ffe1cc"
           stroke-opacity="0"
           id="circle20" />
        <circle
           cx="17.623"
           cy="14.683"
           r="1.9222"
           fill="#ffc49b"
           stroke-opacity="0"
           id="circle22" />
        <path
           d="m2.2614 7.3629.035478 5.8093-.040418 6.617.081509.08825.0004345.06399c1.6835 1.6797 3.2614 3.4638 4.8757 5.2098.71202.77013 1.6328 1.2031 2.5804 1.2958.02628.0011.05252.003.07881.0036.07349.0017.147.000826.2205-.0016 1.1677.07746 2.3577-.35995 3.2325-1.3062 1.6366-1.7258 3.1842-3.5371 4.8757-5.2098l.000478-.06399.08151-.08825-.04042-6.617.03503-5.7359h-15.347c-.22955 0-.45371-.022738-.67048-.065117z"
           fill="#ffe1cc"
           stroke-opacity="0"
           id="path24" />
        <path
           d="m10.166.081777a9.2875 9.0491 0 0 0-9.2874 9.0492 9.2875 9.0491 0 0 0 .66764 3.3686l.078452-.09837s4.2173-.55701 4.7381-2.532c.5208-1.975.30767-.94828.30767-.94828s.060443 1.8519 3.3448 2.1593c3.2844.30748 9.1978.01396 9.1978.01396l.01046.03811a9.2875 9.0491 0 0 0 .23013-2.0014 9.2875 9.0491 0 0 0-9.2876-9.0492z"
           fill="#0edfdf"
           stroke-opacity="0"
           id="path26" />
        <path
           d="m9.0951 21.116a1.2248 1.3123 0 0 0-1.1281.83732 2.468 2.3495 0 0 0 2.3007 1.4995 2.468 2.3495 0 0 0 2.3007-1.4995h.0099a1.2485 1.3123 0 0 0-1.164-.83732 1.2485 1.3123 0 0 0-1.1638.83732 1.2248 1.3123 0 0 0-1.1418-.83732 1.2248 1.3123 0 0 0-.01347 0z"
           fill="#f00"
           stroke-opacity="0"
           id="path28" />
        <ellipse
           cx="10.27"
           cy="19.261"
           rx="1.2179"
           ry=".73276"
           fill="#ffc49b"
           stroke-opacity="0"
           id="ellipse30" />
        <circle
           cx="6.6562"
           cy="15.865"
           r="2.4773"
           fill="#d870d6"
           stroke-opacity="0"
           id="circle32" />
        <circle
           cx="14.097"
           cy="15.843"
           r="2.4773"
           fill="#d870d6"
           stroke-opacity="0"
           id="circle34" />
      </g>
    </symbol>
    <symbol
       id="amulate">
      <g
         id="amulate_transform"
         transform="matrix(3.8372 0 0 3.8372 15.834 -1.1759)">
        <path
           d="m9.7982 7.9843c-.34101-.34283-.8245-.351-1.2106-.23939-.38606.11162-.75184.34289-1.0776.66695l-.74222.73828c-.32579.32406-.55761.68723-.6713 1.0727-.11367.38547-.10945.87037.23156 1.2132l.36362.36557c.34101.34283.82589.34964 1.212.23801.38607-.11162.75046-.34151 1.0762-.66557l.74222-.73828c.32579-.32406.559-.68861.67268-1.0741.11368-.38546.10807-.86899-.23294-1.2118zm-.80315.79888.36362.36557c-.0502-.05048-.007-.059125-.0513.092398-.0447.15152-.17645.38488-.38413.59146l-.74226.73828c-.20768.20658-.44171.3371-.5935.38097-.15176.0439-.14289.000357-.0927.05085l-.36362-.36557c.0502.05048.007.05912.0513-.0924.0447-.15152.17645-.38488.38413-.59146l.74222-.73828c.20768-.20658.44171-.3371.5935-.38097.15176-.043901.14289-.000357.0927-.050851z"
           color="#000000"
           color-rendering="auto"
           dominant-baseline="auto"
           fill="#8f8f8f"
           image-rendering="auto"
           shape-rendering="auto"
           solid-color="#000000"
           stop-color="#000000"
           style="font-feature-settings:normal;font-variant-alternates:normal;font-variant-caps:normal;font-variant-east-asian:normal;font-variant-ligatures:normal;font-variant-numeric:normal;font-variant-position:normal;font-variation-settings:normal;inline-size:0;isolation:auto;mix-blend-mode:normal;shape-margin:0;shape-padding:0;text-decoration-color:#000000;text-decoration-line:none;text-decoration-style:solid;text-indent:0;text-orientation:mixed;text-transform:none;white-space:normal"
           id="path130" />
        <path
           d="m13.588 7.5087-.45147.38272c-.70224 1.4243-2.7066 3.0027-5.368 3.7969-2.5242.75331-4.9423.59817-6.35-.11483l-1.0641.78226c.0585.35052.13757.70477.24386 1.0609l2.1511 7.208c1.2607 4.2244 5.4773 6.7509 9.4692 5.5596s6.1342-5.6155 4.8735-9.8399l-2.1511-7.208c-.1286-.43095-.28752-.84349-.47259-1.2349zm.01 2.3006 1.6658 5.5819-4.8707 1.4536-1.2156-4.0731c1.8629-.70686 3.3958-1.7451 4.4205-2.9624zm-11.465 3.5767c1.5938.41171 3.5116.38201 5.5088-.12896l1.2081 4.0482-5.0936 1.5201zm2.0875 6.9809 5.0901-1.5191 1.8126 6.0736c-2.9145.4926-5.8749-1.3822-6.9027-4.5546zm6.6328-1.9795 4.8673-1.4526c.85555 3.1315-.49379 6.2392-3.0639 7.4954z"
           color="#000000"
           color-rendering="auto"
           dominant-baseline="auto"
           fill="#ffbc4c"
           image-rendering="auto"
           shape-rendering="auto"
           solid-color="#000000"
           stop-color="#000000"
           style="font-feature-settings:normal;font-variant-alternates:normal;font-variant-caps:normal;font-variant-east-asian:normal;font-variant-ligatures:normal;font-variant-numeric:normal;font-variant-position:normal;font-variation-settings:normal;inline-size:0;isolation:auto;mix-blend-mode:normal;shape-margin:0;shape-padding:0;text-decoration-color:#000000;text-decoration-line:none;text-decoration-style:solid;text-indent:0;text-orientation:mixed;text-transform:none;white-space:normal"
           id="path132" />
        <path
           d="m13.608 9.8367-.13647.14889c-.96882 1.058-2.4136 2.0479-3.7948 2.6001-.16593.06634-.34376.14331-.39517.17107l-.0935.0505 1.2024 4.0291 4.8725-1.4541-.82755-2.773zm-11.397 3.6035c-.0112.0034.33948 1.212.77935 2.686l.79977 2.6799 5.0496-1.507-1.1993-4.0188-.44097.09844c-1.5426.34458-3.1586.39446-4.5197.13944-.24671-.04622-.45756-.08128-.46874-.07795zm2.0418 6.9161.0713.23913c.11352.38026.53402 1.1901.85507 1.6465 1.3351 1.8984 3.3534 2.8832 5.5592 2.7123.16856-.01301.3219-.0266.34075-.03006.0189-.0035-.37319-1.3719-.87123-3.0407l-.90552-3.0342-2.5248.7535zm10.682-3.1795c-.4382.12963-1.0357.30903-1.6864.50673l-2.3664.71864 1.7696 6.013.15789-.07839c.25717-.12775.95233-.62644 1.2091-.86736 1.3712-1.2867 2.0918-3.2781 1.9109-5.282-.0472-.52213-.1964-1.2137-.2631-1.2187-.0141-.001-.29337.07857-.73157.2082z"
           fill="#d40000"
           id="path134" />
        <path
           d="m12.278 4.6162c-.3698-.31154-.8534-.27571-1.2282-.13061-.37476.14511-.71755.40613-1.0136.75756l-.67449.80063c-.29606.35143-.49633.73506-.57571 1.129-.0794.39397-.0326.87663.33725 1.1882l.39434.33221c.3698.31154.85341.27571 1.2282.1306.37477-.1451.71881-.40762 1.0149-.75905l.67448-.80063c.29606-.35143.49508-.73357.57446-1.1275.0794-.39396.0326-.87662-.33724-1.1882zm-.72985.86636.39434.33221c-.0545-.045873-.0131-.056822-.0443.098044-.0312.15487-.14069.3974-.32942.62143l-.67449.80063c-.18873.22403-.41038.37461-.55773.43165-.14732.057064-.14357.014403-.0891.060289l-.39433-.33221c.0545.045873.0131.056822.0443-.098044.0312-.15487.14196-.39889.33069-.62292l.67448-.80063c.18873-.22403.40913-.37311.55647-.43016.14731-.057064.14357-.014403.0891-.060289z"
           color="#000000"
           color-rendering="auto"
           dominant-baseline="auto"
           fill="#8f8f8f"
           image-rendering="auto"
           shape-rendering="auto"
           solid-color="#000000"
           stop-color="#000000"
           style="font-feature-settings:normal;font-variant-alternates:normal;font-variant-caps:normal;font-variant-east-asian:normal;font-variant-ligatures:normal;font-variant-numeric:normal;font-variant-position:normal;font-variation-settings:normal;inline-size:0;isolation:auto;mix-blend-mode:normal;shape-margin:0;shape-padding:0;text-decoration-color:#000000;text-decoration-line:none;text-decoration-style:solid;text-indent:0;text-orientation:mixed;text-transform:none;white-space:normal"
           id="path136" />
        <path
           d="m9.7882 1.2121c-.39722.27575-.48878.75195-.44644 1.1516.0423.39964.20602.80025.46806 1.1777l.59699.85997c.26204.37748.57903.66928.93864.84867.35962.17938.83778.26009 1.235-.015656l.42197-.29292c.39721-.27574.48877-.75195.44644-1.1516-.0423-.39964-.2049-.79864-.46694-1.1761l-.59699-.85997c-.26204-.37748-.58015-.67088-.93976-.85027-.35963-.17938-.83779-.26009-1.235.015656zm.646.93057.42196-.29292c-.0585.040602-.0567-.00329.0847.067243.14136.070537.34645.2422.51349.48283l.59699.85997c.16704.24063.25504.4912.27172.64829.0167.1571-.0251.14347.0334.10283l-.42196.29292c.0585-.040602.0567.00329-.0847-.067243-.14136-.070537-.34534-.24059-.51239-.48122l-.59698-.85997c-.16705-.24063-.25616-.4928-.27283-.6499-.0167-.1571.0251-.14347-.0334-.10283z"
           color="#000000"
           color-rendering="auto"
           dominant-baseline="auto"
           fill="#8f8f8f"
           image-rendering="auto"
           shape-rendering="auto"
           solid-color="#000000"
           stop-color="#000000"
           style="font-feature-settings:normal;font-variant-alternates:normal;font-variant-caps:normal;font-variant-east-asian:normal;font-variant-ligatures:normal;font-variant-numeric:normal;font-variant-position:normal;font-variation-settings:normal;inline-size:0;isolation:auto;mix-blend-mode:normal;shape-margin:0;shape-padding:0;text-decoration-color:#000000;text-decoration-line:none;text-decoration-style:solid;text-indent:0;text-orientation:mixed;text-transform:none;white-space:normal"
           id="path138" />
        <path
           d="m5.7782 2.2366c-.003.48353.33324.83263.68433 1.0282.35109.19555.77091.29243 1.2304.2956l1.0469.00722c.4595.00317.88257-.0879 1.2363-.27859.35375-.19069.69316-.53513.6965-1.0187l.004-.51561c.003-.48353-.33129-.83262-.68238-1.0282s-.77286-.29245-1.2324-.29561l-1.0469-.007219c-.4595-.003168-.88062.087914-1.2344.2786-.35375.19069-.69512.53511-.69845 1.0186zm1.1328.00781.004-.51561c-.00049.071221-.0353.046387.10371-.028582.13908-.074969.3956-.14571.68851-.14369l1.0469.00722c.29291.00202.55037.076308.68841.15319.13803.07688.10086.10122.10135.029996l-.004.51561c.00049-.071221.0373-.046373-.10176.028596-.13908.074969-.39755.1457-.69046.14368l-1.0469-.00722c-.29291-.00202-.54842-.076294-.68646-.15317-.13802-.07688-.10281-.10123-.1033-.03001z"
           color="#000000"
           color-rendering="auto"
           dominant-baseline="auto"
           fill="#8f8f8f"
           image-rendering="auto"
           shape-rendering="auto"
           solid-color="#000000"
           stop-color="#000000"
           style="font-feature-settings:normal;font-variant-alternates:normal;font-variant-caps:normal;font-variant-east-asian:normal;font-variant-ligatures:normal;font-variant-numeric:normal;font-variant-position:normal;font-variation-settings:normal;inline-size:0;isolation:auto;mix-blend-mode:normal;shape-margin:0;shape-padding:0;text-decoration-color:#000000;text-decoration-line:none;text-decoration-style:solid;text-indent:0;text-orientation:mixed;text-transform:none;white-space:normal"
           id="path140" />
        <path
           d="m4.3282 5.0609c.42105.23774.88968.11306 1.2311-.098879.34144-.21194.63002-.53188.85595-.93201l.51471-.9116c.22592-.40014.35176-.8142.35688-1.216.005-.40185-.13019-.86752-.55125-1.1053l-.44901-.25352c-.42106-.23774-.88968-.11306-1.2311.098884-.34146.21194-.63099.53358-.85691.93371l-.51471.9116c-.22593.40014-.35081.8125-.35593 1.2143-.005.40184.13019.86751.55125 1.1052zm.55696-.98644-.44901-.25352c.062.035006.0233.053424.0254-.10455.002-.15797.0647-.41657.20876-.67165l.51471-.9116c.14403-.25508.33399-.44407.46824-.52738.13422-.083335.13843-.040718.0764-.075734l.449.25352c-.062-.035006-.0233-.053424-.0254.10455-.002.15797-.0657.41827-.20973.67334l-.5147.9116c-.14403.25508-.33303.44237-.46727.52569-.13422.083335-.13843.040718-.0764.075734z"
           color="#000000"
           color-rendering="auto"
           dominant-baseline="auto"
           fill="#8f8f8f"
           image-rendering="auto"
           shape-rendering="auto"
           solid-color="#000000"
           stop-color="#000000"
           style="font-feature-settings:normal;font-variant-alternates:normal;font-variant-caps:normal;font-variant-east-asian:normal;font-variant-ligatures:normal;font-variant-numeric:normal;font-variant-position:normal;font-variation-settings:normal;inline-size:0;isolation:auto;mix-blend-mode:normal;shape-margin:0;shape-padding:0;text-decoration-color:#000000;text-decoration-line:none;text-decoration-style:solid;text-indent:0;text-orientation:mixed;text-transform:none;white-space:normal"
           id="path142" />
        <path
           d="m4.1282 5.1425c-.46004.14889-.68559.57817-.7608.97294-.0752.39478-.0352.82376.10632 1.2609l.32235.99601c.14149.43719.361.81015.65325 1.086.29225.27584.72655.49157 1.1866.34268l.49057-.15877c.46005-.14889.6856-.57817.76082-.97295.0752-.39477.0346-.82562-.10692-1.2628l-.32235-.99601c-.1415-.43719-.3604-.80829-.65265-1.0841-.29226-.27584-.72656-.49157-1.1866-.34268zm.34882 1.0778.49057-.15877c-.0677.021924-.0551-.018988.0598.089465.11487.10845.26271.3297.35291.60839l.32235.99601c.0902.27869.10065.54645.0711.70166-.0295.15519-.0638.12944.004.10751l-.49058.15877c.0677-.021924.0551.018988-.0598-.089465-.11487-.10845-.26332-.33155-.35352-.61025l-.32235-.99601c-.0902-.27869-.10005-.5446-.0705-.6998.0295-.15519.0638-.12944-.004-.10751z"
           color="#000000"
           color-rendering="auto"
           dominant-baseline="auto"
           fill="#8f8f8f"
           image-rendering="auto"
           shape-rendering="auto"
           solid-color="#000000"
           stop-color="#000000"
           style="font-feature-settings:normal;font-variant-alternates:normal;font-variant-caps:normal;font-variant-east-asian:normal;font-variant-ligatures:normal;font-variant-numeric:normal;font-variant-position:normal;font-variation-settings:normal;inline-size:0;isolation:auto;mix-blend-mode:normal;shape-margin:0;shape-padding:0;text-decoration-color:#000000;text-decoration-line:none;text-decoration-style:solid;text-indent:0;text-orientation:mixed;text-transform:none;white-space:normal"
           id="path144" />
      </g>
    </symbol>
    <symbol
       id="minion">
      <g
         id="minion_transform"
         transform="matrix(3.3575 0 0 3.3575 10.609 -2.036)">
        <circle
           cx="4.4396"
           cy="17.406"
           r="3.9461"
           fill="#ffe1cc"
           stroke-linecap="round"
           stroke-linejoin="bevel"
           stroke-opacity=".98697"
           stroke-width=".39975"
           id="circle148" />
        <circle
           cx="4.4396"
           cy="17.406"
           r="2.4951"
           fill="#ffc49b"
           stroke-linecap="round"
           stroke-linejoin="bevel"
           stroke-opacity=".98697"
           stroke-width=".25276"
           id="circle150" />
        <circle
           cx="19.025"
           cy="17.46"
           r="3.9461"
           fill="#ffe1cc"
           stroke-linecap="round"
           stroke-linejoin="bevel"
           stroke-opacity=".98697"
           stroke-width=".39975"
           id="circle152" />
        <circle
           cx="19.025"
           cy="17.46"
           r="2.4951"
           fill="#ffc49b"
           stroke-linecap="round"
           stroke-linejoin="bevel"
           stroke-opacity=".98697"
           stroke-width=".25276"
           id="circle154" />
        <path
           d="m7.7006 7.9116h7.851c2.5167 0 4.9599 3.7035 4.7263 6.0915-.45009 4.6016 1.5037 9.2849-4.7263 14.828 0 0-2.1871 2.2721-3.8147.70893-1.1025 1.4274-4.0363-.70893-4.0363-.70893-5.6185-4.3635-4.4237-9.0598-4.4237-14.696 0-2.5167 1.907-6.2229 4.4237-6.2229z"
           fill="#ffe1cc"
           id="path156" />
        <path
           d="m6.9026 6.0161 1.1437-5.5274.91326 5.4729.99418-5.5531.78957 5.617.86406-5.6003.91251 5.5915.72947-5.669 1.1583 5.5374.6468-5.3671 1.0863 5.4066c1.1415 5.816-11.591 4.7345-9.2382.091332z"
           fill="#d40000"
           id="path158" />
        <path
           d="m5.9146 22.242a5.6193 5.6193 0 0 0 5.6193 5.5958 5.6193 5.6193 0 0 0 5.6191-5.5958z"
           fill="#faa"
           id="path160" />
        <circle
           cx="15.143"
           cy="16.215"
           r="2.1587"
           fill="url(#linearGradient6153)"
           stroke-opacity="0"
           id="circle162" />
        <circle
           cx="8.3456"
           cy="16.202"
           r="2.1587"
           fill="#d40000"
           stroke-opacity="0"
           id="circle164" />
        <ellipse
           cx="11.732"
           cy="20.277"
           rx="1.3065"
           ry=".80746"
           fill="#ffc49b"
           stroke-opacity="0"
           id="ellipse166" />
        <circle
           cx="14.895"
           cy="16.22"
           r="2.1587"
           fill="#d40000"
           stroke-opacity="0"
           id="circle168" />
      </g>
    </symbol>
    <symbol
       id="sandwich">
      <path
         id="path1393"
         style="fill:#ffe1cc;fill-opacity:1;stroke:#ffc49b;stroke-width:2.54833;stroke-linecap:round;stroke-linejoin:round;stroke-opacity:1"
         d="M 53.510654,9.5053181 A 34.39996,16.483088 0 0 0 19.24587,25.988185 a 34.39996,16.483088 0 0 0 6.898415,9.899673 v 45.699099 c 0,0.801724 0.646645,1.448369 1.448369,1.448369 h 51.69498 c 0.801724,0 1.446709,-0.646645 1.446709,-1.448369 V 36.146673 A 34.39996,16.483088 0 0 0 88.045867,25.988185 34.39996,16.483088 0 0 0 53.646698,9.5053181 a 34.39996,16.483088 0 0 0 -0.136044,0 z" />
      <path
         style="fill:#31a72b;fill-opacity:1;stroke:none;stroke-width:0.849444px;stroke-linecap:butt;stroke-linejoin:miter;stroke-opacity:1"
         d="m 65.008163,11.693108 c 3.904481,2.73314 5.360998,7.757539 6.978604,11.963312 0.30284,0.78738 0.774973,1.512317 0.996941,2.326203 0.471531,1.728949 -1.168721,6.228083 0.996939,7.310908 1.808465,0.904229 7.554011,0.926694 9.969425,1.329262 1.114281,0.185713 2.204844,0.50487 3.323141,0.664627 1.714685,0.244954 4.764715,0.116933 5.317032,2.326192 1.271966,5.087888 -4.179243,17.880723 -7.310911,22.265059 -0.763794,1.069312 -2.40436,1.817882 -2.990829,2.990819 -0.265678,0.531358 0.189692,1.424825 0,1.993897 -0.354066,1.062197 -1.095448,2.047283 -1.661575,2.99082 -2.017494,3.362463 7.025119,15.55298 3.202812,16.961195 -3.602501,1.327234 -7.195467,1.329252 -10.966373,1.329252 -0.689894,0 -4.26806,-0.286658 -4.984708,0 -2.140649,0.85626 -5.792867,5.745656 -7.310918,7.643221 -0.680839,0.851049 -12.8237,-9.504376 -13.504539,-8.653326 -0.620693,0.775864 -1.070622,1.772232 -1.993889,2.326192 -0.901884,0.541133 -6.763877,-0.383233 -7.64323,-0.664626 -1.802809,-0.576896 -3.550329,-1.314384 -5.317027,-1.99388 -2.687634,-1.033703 -5.767284,-1.937388 -8.307853,-3.323149 -1.594118,-0.869516 -3.564319,-2.627659 -4.652397,-3.98776 -0.309468,-0.386835 -0.389843,-0.917081 -0.664629,-1.329271 -1.218826,-1.828241 -0.189274,0.950703 -1.661574,-1.993879 -0.198149,-0.396307 0,-0.886168 0,-1.329253 0,-0.221542 -0.132921,-0.487393 0,-0.664627 1.057194,-1.409579 2.229579,-1.655365 2.658047,-3.654996 0.276324,-1.289565 0.156025,-7.568241 0,-8.972476 -0.112781,-1.015018 -0.509336,-1.981447 -0.664622,-2.990837 -0.257491,-1.673685 0,-3.618639 0,-5.317029 0,-0.332313 -0.315263,-0.891853 0,-0.99694 0.315262,-0.105087 0.674552,0.08059 0.996942,0 0.75428,-0.18857 0.903714,-1.944842 0.66463,-2.53597 -0.988252,-2.443396 -2.784426,-4.595099 -3.961341,-6.948932 -1.021253,-2.042503 -1.45762,-8.662979 -0.996941,-10.966357 0.369848,-1.849266 5.94249,-4.22722 7.643222,-4.652402 0.311848,-0.07796 1.432392,0.217888 1.661572,0 0.174161,-0.165577 0.01869,-2.504918 0,-2.663248 -0.464994,-3.932556 -1.661572,-7.6818 -1.661572,-11.63099 0,-0.08985 -0.15093,-1.8367267 0,-1.9938885 0.07365,-0.076727 0.218044,0.033108 0.319136,0 3.161113,-1.0352503 1.741081,-1.1034164 5.1332,-0.9149656 3.986823,0.2214891 8.253504,1.112751 11.963317,2.6585061 13.413474,-0.9210826 13.073743,-6.6112356 24.429968,1.099337 z"
         id="path1761"
         sodipodi:nodetypes="cssssssssssssssssssssssscssssssssssscscsscc" />
      <circle
         style="fill:#ffaaaa;fill-opacity:1;stroke:#9a3030;stroke-width:2.39486;stroke-linecap:round;stroke-linejoin:round;stroke-opacity:1"
         id="path1577"
         cx="46.526226"
         cy="48.919231"
         r="37.561794" />
      <path
         id="rect1115"
         style="fill:#ffe1cc;fill-opacity:1;stroke:#ffc49b;stroke-width:2.54833;stroke-linecap:round;stroke-linejoin:round;stroke-opacity:1"
         d="m 46.928561,11.528433 a 34.39996,16.483088 0 0 0 -34.264784,16.482866 34.39996,16.483088 0 0 0 6.898414,9.899673 v 45.6991 c 0,0.801724 0.646645,1.448369 1.448369,1.448369 h 51.69498 c 0.801725,0 1.446711,-0.646645 1.446711,-1.448369 V 38.169787 a 34.39996,16.483088 0 0 0 7.311523,-10.158488 34.39996,16.483088 0 0 0 -34.39917,-16.482866 34.39996,16.483088 0 0 0 -0.136043,0 z" />
    </symbol>
    <symbol
       id="noose">
      <path
         style="fill:none;stroke:#000000;stroke-width:2.676;stroke-linecap:butt;stroke-linejoin:miter;stroke-miterlimit:4;stroke-dasharray:none;stroke-opacity:1"
         d="M 71.17388,91.207188 V 7.910139"
         id="path1135" />
      <path
         style="fill:none;stroke:#000000;stroke-width:2.676;stroke-linecap:butt;stroke-linejoin:miter;stroke-miterlimit:4;stroke-dasharray:none;stroke-opacity:1"
         d="M 85.239523,8.622926 H 23.066291"
         id="path1427" />
      <path
         style="fill:none;stroke:#ffbc4c;stroke-width:1.4757px;stroke-linecap:butt;stroke-linejoin:miter;stroke-opacity:1"
         d="M 35.685397,10.405578 V 35.542803"
         id="path1913" />
      <ellipse
         style="fill:none;stroke:#ffbc4c;stroke-width:1.4757;stroke-linecap:round;stroke-linejoin:round;stroke-miterlimit:4;stroke-dasharray:none;stroke-opacity:1"
         id="path2011"
         cx="35.340073"
         cy="45.16325"
         rx="7.0959015"
         ry="10.041606" />
      <path
         style="fill:none;stroke:#000000;stroke-width:2.676;stroke-linecap:butt;stroke-linejoin:miter;stroke-miterlimit:4;stroke-dasharray:none;stroke-opacity:1"
         d="M 85.239523,91.043437 H 23.066291"
         id="path2205" />
    </symbol>
    <symbol
       id="wolf-cub">
      <ellipse
         style="fill:#8f8f8f;fill-opacity:1;stroke:none;stroke-width:2.72809;stroke-linecap:round;stroke-linejoin:round;stroke-miterlimit:4;stroke-dasharray:none;stroke-opacity:1"
         id="path2517"
         cx="52.34409"
         cy="54.361485"
         rx="28.090963"
         ry="33.958988" />
      <path
         id="ellipse8030"
         style="fill:#616161;fill-opacity:1;stroke:none;stroke-width:1.32425;stroke-linecap:round;stroke-linejoin:round;stroke-miterlimit:4;stroke-dasharray:none;stroke-opacity:1"
         d="m 67.575126,72.594278 c 0,8.587494 -6.471933,15.549033 -14.455463,15.549033 -7.983533,0 -14.455463,-6.961539 -14.455463,-15.549033 0,-8.587494 6.47193,-15.549032 14.455463,-15.549032 7.98353,0 14.455463,6.961538 14.455463,15.549032 z"
         sodipodi:nodetypes="scsss" />
      <ellipse
         cx="52.184387"
         cy="64.130394"
         rx="4.270586"
         ry="2.6393628"
         stroke-opacity="0"
         id="ellipse3002"
         style="stroke-width:3.26872" />
      <path
         id="path3202"
         style="fill:#9a3030;fill-opacity:1;stroke:none;stroke-width:2.68383;stroke-linecap:round;stroke-linejoin:round;stroke-miterlimit:4;stroke-dasharray:none;stroke-opacity:1"
         d="m 41.804746,74.734157 a 11.144619,5.6010958 0 0 0 11.142444,5.5477 11.144619,5.6010958 0 0 0 11.144124,-5.5477 z" />
      <path
         id="ellipse2621"
         style="fill:#8f8f8f;fill-opacity:1;stroke:none;stroke-width:1.63138;stroke-linecap:round;stroke-linejoin:round;stroke-miterlimit:4;stroke-dasharray:none;stroke-opacity:1"
         d="M 40.836759,42.162344 C 35.124363,52.156098 18.807026,61.422445 10.918444,57.13164 5.0488211,53.938998 10.101277,43.846945 13.915833,31.240503 17.315663,20.004663 30.408786,9.2102212 37.798929,14.496108 c 7.390143,5.285886 8.750227,17.672483 3.03783,27.666236 z"
         sodipodi:nodetypes="sssss" />
      <circle
         style="fill:#ffffff;fill-opacity:1;stroke:none;stroke-width:2.30193;stroke-linecap:round;stroke-linejoin:round;stroke-miterlimit:4;stroke-dasharray:none;stroke-opacity:1"
         id="path3617"
         cx="40.975018"
         cy="50.698189"
         r="8.924283" />
      <path
         id="path7108"
         style="fill:#8f8f8f;fill-opacity:1;stroke:none;stroke-width:1.66199;stroke-linecap:round;stroke-linejoin:round;stroke-miterlimit:4;stroke-dasharray:none;stroke-opacity:1"
         d="m 58.777786,36.577013 c 8.723567,7.194539 21.451556,7.572496 30.179346,2.474753 6.494046,-3.793055 9.514256,-9.201015 0.288158,-16.779497 C 77.98428,13.022274 65.085015,7.1448958 57.366294,12.998035 c -7.850543,5.9531 -7.312074,16.384438 1.411492,23.578978 z"
         sodipodi:nodetypes="sssss" />
      <circle
         style="fill:#ffffff;fill-opacity:1;stroke:none;stroke-width:2.30193;stroke-linecap:round;stroke-linejoin:round;stroke-miterlimit:4;stroke-dasharray:none;stroke-opacity:1"
         id="circle3721"
         cx="64.103386"
         cy="49.846767"
         r="8.924283" />
      <circle
         style="fill:#000000;fill-opacity:1;stroke:none;stroke-width:2.30193;stroke-linecap:round;stroke-linejoin:round;stroke-miterlimit:4;stroke-dasharray:none;stroke-opacity:1"
         id="path3825"
         cx="42.957485"
         cy="52.281204"
         r="3.8210623" />
      <circle
         style="fill:#000000;fill-opacity:1;stroke:none;stroke-width:2.30193;stroke-linecap:round;stroke-linejoin:round;stroke-miterlimit:4;stroke-dasharray:none;stroke-opacity:1"
         id="circle3929"
         cx="62.11554"
         cy="51.566349"
         r="3.8210623" />
      <path
         id="path9363"
         style="fill:#616161;fill-opacity:1;stroke:none;stroke-width:1.63138;stroke-linecap:round;stroke-linejoin:round;stroke-miterlimit:4;stroke-dasharray:none;stroke-opacity:1"
         d="m 24.859459,16.317998 c -4.821692,3.409882 -9.183492,9.103877 -10.944191,14.922676 -0.419507,1.386399 -0.853681,2.727623 -1.286959,4.047368 0.390455,0.395361 0.830693,0.739388 1.322242,1.023183 3.996897,2.307609 9.789368,-0.242821 12.938473,-5.69723 3.149104,-5.454406 2.462965,-11.746451 -1.533934,-14.054062 -0.16084,-0.09286 -0.329261,-0.164681 -0.495631,-0.241935 z" />
    </symbol>
    <symbol
       id="alpha-wolf">
      <path
         style="fill:#e8e8e8;fill-opacity:1;stroke:none;stroke-width:1px;stroke-linecap:butt;stroke-linejoin:miter;stroke-opacity:1"
         d="M 28.920556,3.0323274 C 34.354041,1.5203965 37.275479,34.476274 35.977921,39.964901 35.02951,43.97665 26.073193,48.432717 22.591823,46.225082 16.986428,42.670541 22.526092,4.8116587 28.920556,3.0323274 Z"
         id="path3907"
         sodipodi:nodetypes="ssss" />
      <path
         style="fill:#e8e8e8;fill-opacity:1;stroke:none;stroke-width:1px;stroke-linecap:butt;stroke-linejoin:miter;stroke-opacity:1"
         d="M 69.639235,3.0323274 C 64.20575,1.5203964 61.284312,34.476274 62.58187,39.964901 c 0.948411,4.011749 9.904728,8.467816 13.386098,6.260181 5.605395,-3.554541 0.06573,-41.4134236 -6.328733,-43.1927546 z"
         id="path4251"
         sodipodi:nodetypes="ssss" />
      <path
         style="fill:#9a3030;fill-opacity:1;stroke:none;stroke-width:0.727337px;stroke-linecap:butt;stroke-linejoin:miter;stroke-opacity:1"
         d="m 69.81392,8.993892 c -3.951974,-1.0996835 -6.076844,22.87034 -5.133082,26.862421 0.689814,2.917893 7.204074,6.158955 9.736202,4.55326 4.077011,-2.585348 0.04781,-30.121508 -4.60312,-31.415681 z"
         id="path5745"
         sodipodi:nodetypes="ssss" />
      <path
         style="fill:#9a3030;fill-opacity:1;stroke:none;stroke-width:0.727337px;stroke-linecap:butt;stroke-linejoin:miter;stroke-opacity:1"
         d="m 28.745871,8.993892 c 3.951974,-1.0996835 6.076844,22.87034 5.133082,26.862421 -0.689814,2.917893 -7.204074,6.158955 -9.736202,4.55326 -4.077011,-2.585348 -0.04781,-30.121508 4.60312,-31.415681 z"
         id="path5401"
         sodipodi:nodetypes="ssss" />
      <path
         id="path17377"
         style="fill:#e8e8e8;fill-opacity:1;stroke-width:2.18924;stroke-linecap:round;stroke-linejoin:round"
         d="m 43.181641,10.300781 c -1.046115,1.734624 -1.870949,3.518915 -2.492188,5.310547 -0.241043,0.07868 -0.483726,0.154583 -0.720703,0.240234 -1.334442,-0.700487 -2.763278,-1.304287 -4.287109,-1.779296 -0.283562,1.40402 -0.451157,2.795991 -0.513672,4.162109 -0.233519,0.150813 -0.467282,0.302085 -0.695313,0.460937 -2.136847,-0.74678 -4.452205,-1.243553 -6.933594,-1.396484 0.09869,0.587667 0.213796,1.167855 0.345704,1.740234 0.383878,1.558837 0.872611,3.043623 1.447265,4.462891 -0.303485,0.372995 -0.601863,0.75198 -0.888672,1.144531 -1.86789,0.216987 -3.770952,0.625399 -5.685547,1.222657 0.764494,1.472988 1.617062,2.86747 2.539063,4.189453 -0.395234,0.861129 -0.762545,1.749246 -1.097656,2.666015 -1.539731,1.012785 -3.050731,2.165726 -4.5,3.453125 0.843024,1.222997 1.738429,2.375107 2.664062,3.472657 -0.09601,0.526853 -0.205737,1.043521 -0.285156,1.582031 -0.07385,0.500756 -0.134881,1.021881 -0.183594,1.560547 -0.277247,0.130543 -0.556449,0.254558 -0.832031,0.392578 -1.346094,0.948984 -2.652972,2.014208 -3.919922,3.166015 1.532034,1.309023 3.124919,2.46818 4.751953,3.525391 0.01398,0.190744 0.03475,0.387471 0.05078,0.580078 -1.05906,1.143714 -2.089511,2.344845 -3.082031,3.589844 1.251438,0.668136 2.511862,1.289057 3.771485,1.882813 0.04152,0.247275 0.09037,0.49741 0.134765,0.746093 -1.574644,1.666614 -3.104427,3.409618 -4.566406,5.253907 2.044643,0.641907 4.09351,1.191851 6.142578,1.679687 0.129875,0.469955 0.262991,0.938903 0.402344,1.408203 -0.967147,1.631122 -1.896152,3.306304 -2.75,5.056641 1.597438,0.349521 3.192217,0.632641 4.783203,0.882812 0.35428,0.901642 0.731114,1.790326 1.121094,2.667969 -0.404524,1.795986 -0.753648,3.63548 -0.980469,5.541016 1.437691,0.335213 2.870337,0.601986 4.291016,0.80664 0.556534,0.911583 1.129918,1.801503 1.732421,2.644532 -0.124257,0.285274 -0.252555,0.56804 -0.371093,0.857421 -0.389652,1.598552 -0.679337,3.253998 -0.847657,4.972657 1.359873,-0.0068 2.697518,-0.08477 4.00586,-0.242188 0.642373,-0.07605 1.274323,-0.17817 1.898437,-0.296875 0.154301,0.137888 0.304565,0.284971 0.460938,0.417969 0.04782,1.543387 0.239183,3.127958 0.648437,4.738281 1.397315,-0.468247 2.713795,-1.051917 3.919922,-1.748047 0.224805,0.105927 0.455503,0.193239 0.683594,0.289063 0.547946,2.231684 1.575903,4.486144 3.136719,6.576172 1.26735,-1.27348 2.337139,-2.6553 3.179687,-4.105469 0.235281,-0.402273 0.444708,-0.81114 0.640625,-1.222656 0.489376,-0.02735 0.97057,-0.08014 1.44336,-0.15625 1.492263,1.161761 3.323438,2.092891 5.402343,2.669922 0.153237,-0.689409 0.26722,-1.376503 0.339844,-2.056641 0.100199,-1.000329 0.111393,-1.976877 0.06055,-2.935547 0.779273,-0.515267 1.524364,-1.109609 2.246094,-1.759766 1.213861,-0.114643 2.455374,-0.331672 3.693359,-0.65625 0.635007,-0.16411 1.271368,-0.350583 1.90625,-0.55664 -0.247693,-1.469331 -0.596165,-2.876024 -1.009766,-4.240235 0.566604,-0.860653 1.106013,-1.7656 1.625,-2.701171 0.318438,-0.0096 0.635051,-0.01552 0.955079,-0.03125 1.615532,-0.324873 3.24418,-0.743093 4.871093,-1.230469 -0.85418,-1.797138 -1.801256,-3.508078 -2.792968,-5.166016 0.07808,-0.194592 0.15194,-0.392026 0.228515,-0.587891 0.816347,-0.313094 1.631675,-0.633549 2.441407,-0.974609 0.625771,-0.2634 1.251167,-0.535923 1.875,-0.816406 -0.811809,-1.156857 -1.647834,-2.28097 -2.5,-3.384766 0.07569,-0.240546 0.154819,-0.47957 0.228515,-0.720703 2.16022,-0.763687 4.316864,-1.602768 6.462891,-2.529297 -1.516847,-1.505025 -3.071421,-2.948557 -4.644532,-4.355469 0.108921,-0.470336 0.23019,-0.945706 0.332032,-1.412109 1.632679,-0.963479 3.257732,-1.963109 4.865234,-3.019531 -0.389202,-0.346883 -0.780141,-0.691572 -1.171875,-1.033203 -0.833501,-0.724556 -1.679342,-1.426392 -2.523437,-2.132813 0.158078,-0.969246 0.311299,-1.924337 0.4375,-2.839844 1.298348,-1.313184 2.579161,-2.659432 3.814453,-4.097656 -1.011162,-1.045053 -2.043902,-2.051201 -3.095703,-3.017578 0.03747,-0.651857 0.0788,-1.319121 0.0918,-1.878906 0.01006,-0.433171 0.0026,-0.8675 -0.01562,-1.302734 0.25442,-0.165555 0.51185,-0.323313 0.761718,-0.5 1.189431,-1.144245 2.284527,-2.462041 3.271485,-3.923829 -1.770021,-1.066667 -3.594814,-1.864588 -5.433594,-2.445312 -0.0684,-0.188808 -0.139869,-0.376603 -0.212891,-0.564453 0.694009,-1.384984 1.288943,-2.876556 1.763672,-4.457032 -1.434603,-0.256931 -2.855829,-0.386428 -4.259766,-0.4375 -0.138153,-0.216587 -0.273752,-0.434875 -0.417968,-0.648437 0.763894,-2.178485 1.316103,-4.508262 1.601562,-6.931641 -0.742715,0.118683 -1.475942,0.256175 -2.197265,0.414063 -1.394875,0.295451 -2.752865,0.674978 -4.06836,1.125 -0.359549,-0.328463 -0.727726,-0.64789 -1.103515,-0.958985 -0.110295,-1.8944 -0.404624,-3.84009 -0.923828,-5.798828 -1.528465,0.685885 -2.974795,1.468891 -4.330079,2.333985 -0.86702,-0.442077 -1.759335,-0.836036 -2.671875,-1.181641 -0.981672,-1.536185 -2.154433,-3.020609 -3.570312,-4.398437 -1.211348,0.876034 -2.303197,1.835244 -3.289063,2.853515 -0.598253,-0.04588 -1.199292,-0.07811 -1.80664,-0.07813 -0.0405,-9.2e-5 -0.0806,-9.2e-5 -0.121094,0 -0.431222,0.0019 -0.856919,0.01497 -1.279297,0.03516 -0.168975,-0.251714 -0.329718,-0.50555 -0.507812,-0.753907 -1.155335,-1.186411 -2.457057,-2.299831 -3.890625,-3.3125 z" />
      <circle
         style="fill:#ffffff;fill-opacity:1;stroke:none;stroke-width:2.06503;stroke-linecap:round;stroke-linejoin:round"
         id="circle3791"
         cx="60.669209"
         cy="39.468914"
         r="8.9979105" />
      <ellipse
         style="fill:#8f8f8f;fill-opacity:1;stroke:none;stroke-width:3.07389;stroke-linecap:round;stroke-linejoin:round"
         id="circle4709"
         cx="49.328079"
         cy="79.598518"
         rx="12.352799"
         ry="14.522456" />
      <ellipse
         style="fill:#8f8f8f;fill-opacity:1;stroke:none;stroke-width:2.39699;stroke-linecap:round;stroke-linejoin:round"
         id="path4939"
         cx="49.260574"
         cy="58.296921"
         rx="4.526916"
         ry="2.7654333" />
      <ellipse
         style="fill:#000000;fill-opacity:1;stroke:none;stroke-width:2.39699;stroke-linecap:round;stroke-linejoin:round"
         id="ellipse5169"
         cx="49.260574"
         cy="58.296921"
         rx="4.526916"
         ry="2.7654333" />
      <ellipse
         style="fill:#9a3030;fill-opacity:1;stroke:none;stroke-width:2.676;stroke-linecap:round;stroke-linejoin:round"
         id="path5285"
         cx="49.455502"
         cy="79.980591"
         rx="9.0295019"
         ry="5.5346522" />
      <circle
         style="fill:#000000;fill-opacity:1;stroke:none;stroke-width:1.47357;stroke-linecap:round;stroke-linejoin:round"
         id="circle6205"
         cx="60.541016"
         cy="39.439487"
         r="6.4207683" />
      <circle
         style="fill:#ffffff;fill-opacity:1;stroke:none;stroke-width:2.06503;stroke-linecap:round;stroke-linejoin:round"
         id="path3675"
         cx="37.996429"
         cy="39.695946"
         r="8.9979105" />
      <circle
         style="fill:#000000;fill-opacity:1;stroke:none;stroke-width:1.47357;stroke-linecap:round;stroke-linejoin:round"
         id="circle6089"
         cx="37.996429"
         cy="39.695946"
         r="6.4207683" />
    </symbol>
    <symbol
       id="bodyguard">
      <path
         d="M 65.785021,0.05021226 C 61.749167,3.390178 56.11463,4.6443691 51.023288,3.4708333 43.507824,3.5423895 35.643163,6.3703368 30.767451,12.281794 c -3.424192,4.099719 -3.357717,10.666479 0.384769,14.546103 3.217593,3.493345 8.117718,4.387454 12.562169,5.325514 7.633237,1.322176 16.033196,1.055969 22.765112,-3.18851 2.570049,-1.320974 4.309511,-3.879968 4.757939,-6.718868 0.597893,-2.261301 0.292852,-5.088595 2.461823,-6.569851 2.062769,-1.97923 5.281907,-3.535577 5.549384,-6.7157777 C 79.61903,6.9715601 77.764508,5.6666205 76.000084,5.4886913 73.761342,4.8781285 70.901531,5.0069572 69.463883,2.8719447 68.456053,1.9272584 67.478816,-0.81814518 65.785467,0.05007492 Z"
         fill="#ffbc4c"
         id="path92"
         style="stroke-width:3.4336" />
      <circle
         cx="24.961576"
         cy="50.131081"
         r="13.549329"
         fill="#ffe1cc"
         stroke-linecap="round"
         stroke-linejoin="bevel"
         stroke-opacity="0.98697"
         stroke-width="1.37258"
         id="circle94" />
      <circle
         cx="24.961576"
         cy="50.131081"
         r="8.5671759"
         fill="#ffc49b"
         stroke-linecap="round"
         stroke-linejoin="bevel"
         stroke-opacity="0.98697"
         stroke-width="0.867877"
         id="circle96" />
      <circle
         cx="75.038574"
         cy="50.316498"
         r="13.549329"
         fill="#ffe1cc"
         stroke-linecap="round"
         stroke-linejoin="bevel"
         stroke-opacity="0.98697"
         stroke-width="1.37258"
         id="circle98" />
      <circle
         cx="75.038574"
         cy="50.316498"
         r="8.5671759"
         fill="#ffc49b"
         stroke-linecap="round"
         stroke-linejoin="bevel"
         stroke-opacity="0.98697"
         stroke-width="0.867877"
         id="circle100" />
      <path
         d="M 36.158547,17.5342 H 63.11574 c 8.641341,0 17.030313,12.716337 16.228224,20.915774 C 74.799251,81.40431 77.716575,100.62217 49.656028,100.09339 24.753501,99.623438 21.167792,77.953885 20.96933,38.903209 c 0,-8.641341 6.547875,-21.366949 15.189217,-21.366949 z"
         fill="#ffe1cc"
         id="path102"
         style="stroke-width:3.4336" />
      <path
         d="m 39.130327,63.51182 h 20.866674 c 15.774302,0 13.182621,5.289461 12.561826,8.699713 -3.740221,17.409382 -2.43456,23.509859 -23.877598,23.68978 -16.494328,0.138477 -19.368594,-7.857107 -21.308235,-23.502306 0,-3.594292 -3.024486,-8.88753 11.757333,-8.88753 z"
         fill="#ffbc4c"
         id="path104"
         style="stroke-width:3.4336" />
      <circle
         cx="62.876762"
         cy="45.090557"
         r="8.5060568"
         fill="#ffffff"
         stroke-opacity="0"
         id="circle106"
         style="stroke-width:3.4336" />
      <circle
         cx="61.709335"
         cy="46.041664"
         r="7.4121122"
         fill="#31a72b"
         stroke-opacity="0"
         id="circle108"
         style="stroke-width:3.4336" />
      <circle
         cx="37.052654"
         cy="45.392712"
         r="8.5060568"
         fill="#ffffff"
         stroke-opacity="0"
         id="circle110"
         style="stroke-width:3.4336" />
      <circle
         cx="38.374592"
         cy="45.997025"
         r="7.4121122"
         fill="#31a72b"
         stroke-opacity="0"
         id="circle112"
         style="stroke-width:3.4336" />
      <ellipse
         cx="50.000763"
         cy="59.988949"
         rx="4.4859982"
         ry="2.7724948"
         fill="#ffc49b"
         stroke-opacity="0"
         id="ellipse114"
         style="stroke-width:3.4336" />
      <circle
         cx="39.276939"
         cy="46.793621"
         r="4.6082344"
         stroke-opacity="0"
         id="circle116"
         style="stroke-width:3.4336" />
      <circle
         cx="61.259537"
         cy="46.797054"
         r="4.6082344"
         stroke-opacity="0"
         id="circle118"
         style="stroke-width:3.4336" />
      <path
         d="m 57.781299,30.375864 c 3.701078,-1.436138 7.262064,-1.788151 10.546989,0 0.753092,0.409937 1.54773,0.690291 1.54773,1.547729 0,0.857439 -0.743546,1.845251 -1.54773,1.54773 -3.005052,-1.1118 -6.588735,-0.963675 -10.546989,0 -0.833094,0.202822 -1.547729,-0.690291 -1.547729,-1.54773 0,-0.857438 0.748353,-1.237538 1.547729,-1.547729 z"
         fill="#ffbc4c"
         stroke-opacity="0"
         id="path120"
         style="stroke-width:3.4336" />
      <path
         d="m 31.644393,30.204184 c 3.701077,-1.436138 7.262064,-1.788151 10.546989,0 0.753091,0.409937 1.547729,0.690291 1.547729,1.547729 0,0.857439 -0.743546,1.845251 -1.547729,1.54773 -3.005053,-1.1118 -6.588735,-0.963675 -10.546989,0 -0.833095,0.202822 -1.54773,-0.690291 -1.54773,-1.54773 0,-0.857438 0.748353,-1.237538 1.54773,-1.547729 z"
         fill="#ffbc4c"
         stroke-opacity="0"
         id="path122"
         style="stroke-width:3.4336" />
      <ellipse
         cx="50.584473"
         cy="73.5345"
         rx="16.940697"
         ry="4.8036065"
         fill="none"
         id="ellipse124"
         style="stroke-width:3.4336" />
      <path
         d="M 35.428907,71.65632 A 15.063203,15.063203 0 0 0 50.49211,86.656688 15.063203,15.063203 0 0 0 65.55497,71.65632 Z"
         fill="#fff6d5"
         id="path126"
         style="stroke-width:3.4336" />
    </symbol>
    <symbol
       id="angel">
      <path
         id="path1362"
         style="fill:#ffe1cc;fill-opacity:1;stroke-width:2.33865;stroke-linecap:round;stroke-linejoin:round"
         d="M 86.63643,53.320197 A 33.99041,42.725134 0 0 1 52.646019,96.045331 33.99041,42.725134 0 0 1 18.655607,53.320197 33.99041,42.725134 0 0 1 52.646019,10.595065 33.99041,42.725134 0 0 1 86.63643,53.320197 Z" />
      <ellipse
         style="fill:none;fill-opacity:1;stroke:#ffbc4c;stroke-width:4.00601;stroke-linecap:round;stroke-linejoin:round;stroke-miterlimit:4;stroke-dasharray:none;stroke-opacity:1"
         id="path1619"
         cx="51.944271"
         cy="15.146969"
         rx="29.852089"
         ry="9.7384949" />
      <path
         id="path1748"
         style="fill:#fff6d5;fill-opacity:1;stroke:none;stroke-width:0.936859px;stroke-linecap:butt;stroke-linejoin:miter;stroke-opacity:1"
         d="M 49.871103,8.9259276 C 25.845579,8.9795328 17.93981,34.163738 16.436947,57.192464 V 84.59742 c 1.298262,16.80837 10.100652,15.90004 11.040902,-1.048153 0.920539,-12.146401 2.195483,-28.600602 5.578415,-39.848383 3.158086,-6.801878 11.333258,-8.904323 19.237992,-9.264392 7.904731,-0.360068 16.322826,3.106528 21.415571,10.305887 5.681999,11.324135 3.98849,27.037491 3.98849,40.130976 0.535974,15.575265 11.352141,15.735655 10.340644,-0.275935 V 57.192464 h 0.07868 C 86.696059,35.92923 79.260967,10.638042 52.423679,9.0100985 c -0.87074,-0.059511 -1.72087,-0.086027 -2.552576,-0.084171 z"
         sodipodi:nodetypes="sccccsccccccs" />
      <circle
         cx="65.237022"
         cy="55.236912"
         r="7.968976"
         fill="#ffffff"
         stroke-opacity="0"
         id="circle6470"
         style="stroke-width:3.2168" />
      <circle
         cx="64.143303"
         cy="56.127968"
         r="6.9441042"
         fill="#31a72b"
         stroke-opacity="0"
         id="circle6472"
         style="fill:#0edfdf;fill-opacity:1;stroke-width:3.2168" />
      <circle
         cx="41.043468"
         cy="55.519989"
         r="7.968976"
         fill="#ffffff"
         stroke-opacity="0"
         id="circle6474"
         style="stroke-width:3.2168" />
      <circle
         cx="42.281937"
         cy="56.08614"
         r="6.9441042"
         fill="#31a72b"
         stroke-opacity="0"
         id="circle6476"
         style="fill:#0edfdf;fill-opacity:1;stroke-width:3.2168" />
      <circle
         cx="43.127308"
         cy="56.832443"
         r="4.317266"
         stroke-opacity="0"
         id="circle6478"
         style="stroke-width:3.2168" />
      <circle
         cx="63.721901"
         cy="56.835667"
         r="4.317266"
         stroke-opacity="0"
         id="circle6480"
         style="stroke-width:3.2168" />
      <path
         id="path6608"
         style="fill:#ffaaaa;fill-opacity:1;stroke:none;stroke-width:4.26139;stroke-linecap:round;stroke-linejoin:round;stroke-miterlimit:4;stroke-dasharray:none;stroke-opacity:1"
         d="M 37.553601,73.147474 A 15.632948,20.025905 0 0 0 52.73914,88.421785 15.632948,20.025905 0 0 0 67.924669,73.147474 Z" />
      <path
         id="circle7247"
         style="fill:#ffe1cc;fill-opacity:1;stroke:none;stroke-width:2.98983;stroke-linecap:round;stroke-linejoin:round;stroke-miterlimit:4;stroke-dasharray:none;stroke-opacity:1"
         d="M 27.296497,45.858348 A 9.6786354,9.6786354 0 0 0 16.413742,54.04089 9.6786354,9.6786354 0 0 0 24.482581,65.008214 Z" />
      <path
         id="path7119"
         style="fill:#ffc49b;fill-opacity:1;stroke:none;stroke-width:1.93494;stroke-linecap:round;stroke-linejoin:round;stroke-miterlimit:4;stroke-dasharray:none;stroke-opacity:1"
         d="m 26.791682,49.234742 a 6.2637566,6.2637566 0 0 0 -6.998884,5.302673 6.2637566,6.2637566 0 0 0 5.186308,7.091742 L 26.80018,49.235991 a 6.2637566,6.2637566 0 0 0 -0.0085,-0.0012 z" />
      <path
         id="path8915"
         style="fill:#ffe1cc;fill-opacity:1;stroke:none;stroke-width:2.98983;stroke-linecap:round;stroke-linejoin:round;stroke-miterlimit:4;stroke-dasharray:none;stroke-opacity:1"
         d="M 80.484403,45.858348 A 9.6786354,9.6786354 0 0 1 91.367158,54.04089 9.6786354,9.6786354 0 0 1 83.298319,65.008214 Z" />
      <path
         id="path8919"
         style="fill:#ffc49b;fill-opacity:1;stroke:none;stroke-width:1.93494;stroke-linecap:round;stroke-linejoin:round;stroke-miterlimit:4;stroke-dasharray:none;stroke-opacity:1"
         d="m 80.989222,49.234742 a 6.2637566,6.2637566 0 0 1 6.998884,5.302673 6.2637566,6.2637566 0 0 1 -5.186308,7.091742 L 80.980724,49.235991 a 6.2637566,6.2637566 0 0 1 0.0085,-0.0012 z" />
      <ellipse
         style="fill:#ffc49b;fill-opacity:1;stroke:none;stroke-width:4.276;stroke-linecap:round;stroke-linejoin:round;stroke-miterlimit:4;stroke-dasharray:none;stroke-opacity:1"
         id="ellipse10310"
         cx="53.42231"
         cy="66.987602"
         rx="4.7441115"
         ry="2.9562387" />
    </symbol>
    <symbol
       id="idiot">
      <g
         id="idiot_transform"
         transform="matrix(3.7608 0 0 3.7608 10.094 .69749)">
        <path
           d="m9.3138 20.766a1.2239 1.3113 0 0 0-1.1273.8367 2.4662 2.3477 0 0 0 2.299 1.4984 2.4662 2.3477 0 0 0 2.299-1.4984h.0099a1.2476 1.3113 0 0 0-1.1632-.8367 1.2476 1.3113 0 0 0-1.1629.8367 1.2239 1.3113 0 0 0-1.141-.8367 1.2239 1.3113 0 0 0-.01346 0z"
           fill="#f00"
           stroke-opacity="0"
           id="path62" />
        <circle
           cx="17.874"
           cy="14.492"
           r="3.192"
           fill="#ffe1cc"
           stroke-opacity="0"
           id="circle64" />
        <circle
           cx="17.874"
           cy="14.492"
           r="1.9208"
           fill="#ffc49b"
           stroke-opacity="0"
           id="circle66" />
        <circle
           cx="3.3478"
           cy="14.627"
           r="3.192"
           fill="#ffe1cc"
           stroke-opacity="0"
           id="circle68" />
        <circle
           cx="3.3478"
           cy="14.627"
           r="1.9208"
           fill="#ffc49b"
           stroke-opacity="0"
           id="circle70" />
        <path
           d="m2.6558 7.291.03545 5.8051-.04039 6.6121.08145.08818.000435.06395c-1.124 3.116 1.6515 4.2847 4.8721 5.206.7115.76956 1.6316 1.2022 2.5785 1.2949.02626.0011.05248.003.07876.0036.07344.0017.1469.000825.22034-.0016 1.1668.0774 2.3559-.35969 3.2301-1.3052 2.5774-.73751 4.8538-1.7827 4.8721-5.206l.000478-.06395.08145-.08818-.04039-6.6121.035-5.7317h-15.335c-.22938 0-.45337-.022721-.66999-.065069z"
           fill="#ffe1cc"
           stroke-opacity="0"
           id="path72" />
        <path
           d="m14.382 22.314c0 .9053-1.6661 1.6392-3.7213 1.6392s-3.7213-.73389-3.7213-1.6392c0-.9053 1.6661-1.6392 3.7213-1.6392s3.7213.73389 3.7213 1.6392z"
           color="#000000"
           color-rendering="auto"
           dominant-baseline="auto"
           fill="#faa"
           image-rendering="auto"
           shape-rendering="auto"
           solid-color="#000000"
           stop-color="#000000"
           style="font-feature-settings:normal;font-variant-alternates:normal;font-variant-caps:normal;font-variant-east-asian:normal;font-variant-ligatures:normal;font-variant-numeric:normal;font-variant-position:normal;font-variation-settings:normal;inline-size:0;isolation:auto;mix-blend-mode:normal;shape-margin:0;shape-padding:0;text-decoration-color:#000000;text-decoration-line:none;text-decoration-style:solid;text-indent:0;text-orientation:mixed;text-transform:none;white-space:normal"
           id="path74" />
        <path
           d="m10.384-.25259a9.2807 9.0424 0 0 0-9.2806 9.0425 9.2807 9.0424 0 0 0 .66715 3.3661l.0784-.0983s4.2142-.5566 4.7346-2.5301c.52042-1.9735.30744-.94758.30744-.94758s.0604 1.8505 3.3423 2.1577c3.2819.30725 9.191.01395 9.191.01395l.01046.03808a9.2807 9.0424 0 0 0 .22994-1.9999 9.2807 9.0424 0 0 0-9.2808-9.0425z"
           stroke-opacity="0"
           id="path76" />
        <circle
           cx="13.816"
           cy="14.486"
           r="2.1571"
           fill="#fff"
           stroke-opacity="0"
           id="circle78" />
        <circle
           cx="13.385"
           cy="14.674"
           r="1.3421"
           stroke-opacity="0"
           id="circle80" />
        <circle
           cx="7.1608"
           cy="14.486"
           r="2.1571"
           fill="#fff"
           stroke-opacity="0"
           id="circle82" />
        <circle
           cx="7.6488"
           cy="13.985"
           r="1.3421"
           stroke-opacity="0"
           id="circle84" />
        <ellipse
           cx="10.568"
           cy="18.078"
           rx="1.3065"
           ry=".80746"
           fill="#ffc49b"
           stroke-opacity="0"
           id="ellipse86" />
        <path
           d="m9.6636 20.735c-.88923.10872-1.6436.3584-2.1316.69193v.12816c0 .56139.45198 1.0134 1.0134 1.0134h.27283c.56139 0 1.0134-.45198 1.0134-1.0134v-.27284c0-.20372-.064618-.38928-.16795-.54726z"
           color="#000000"
           color-rendering="auto"
           dominant-baseline="auto"
           fill="#fff6d5"
           image-rendering="auto"
           shape-rendering="auto"
           solid-color="#000000"
           stop-color="#000000"
           stroke-width=".26458"
           style="font-feature-settings:normal;font-variant-alternates:normal;font-variant-caps:normal;font-variant-east-asian:normal;font-variant-ligatures:normal;font-variant-numeric:normal;font-variant-position:normal;font-variation-settings:normal;inline-size:0;isolation:auto;mix-blend-mode:normal;shape-margin:0;shape-padding:0;text-decoration-color:#000000;text-decoration-line:none;text-decoration-style:solid;text-indent:0;text-orientation:mixed;text-transform:none;white-space:normal"
           id="path88" />
      </g>
    </symbol>
    <symbol
       id="baker">
      <circle
         style="fill:#ffe1cc;fill-opacity:1;stroke:none;stroke-width:3.91578;stroke-linecap:round;stroke-linejoin:round;stroke-miterlimit:4;stroke-dasharray:none;stroke-opacity:1"
         id="circle19058"
         cx="27.231232"
         cy="56.630859"
         r="13.304658" />
      <circle
         style="fill:#ffe1cc;fill-opacity:1;stroke:none;stroke-width:3.91578;stroke-linecap:round;stroke-linejoin:round;stroke-miterlimit:4;stroke-dasharray:none;stroke-opacity:1"
         id="circle16924"
         cx="27.231232"
         cy="56.630859"
         r="13.304658" />
      <circle
         style="fill:#ffc49b;fill-opacity:1;stroke:none;stroke-width:2.69265;stroke-linecap:round;stroke-linejoin:round;stroke-miterlimit:4;stroke-dasharray:none;stroke-opacity:1"
         id="circle16926"
         cx="27.231232"
         cy="56.630859"
         r="9.148838" />
      <circle
         style="fill:#ffc49b;fill-opacity:1;stroke:none;stroke-width:2.69265;stroke-linecap:round;stroke-linejoin:round;stroke-miterlimit:4;stroke-dasharray:none;stroke-opacity:1"
         id="circle19060"
         cx="27.231232"
         cy="56.630859"
         r="9.148838" />
      <circle
         style="fill:#ffe1cc;fill-opacity:1;stroke:none;stroke-width:3.91578;stroke-linecap:round;stroke-linejoin:round;stroke-miterlimit:4;stroke-dasharray:none;stroke-opacity:1"
         id="circle22060"
         cx="72.768768"
         cy="56.630859"
         r="13.304658" />
      <circle
         style="fill:#ffc49b;fill-opacity:1;stroke:none;stroke-width:2.69265;stroke-linecap:round;stroke-linejoin:round;stroke-miterlimit:4;stroke-dasharray:none;stroke-opacity:1"
         id="circle22062"
         cx="72.768768"
         cy="56.630859"
         r="9.148838" />
      <path
         id="path72-3"
         style="fill:#ffe1cc;fill-opacity:1;stroke-width:3.49476"
         d="m 21.993329,38.293038 0.07316,11.770733 -0.140978,23.107826 c 0.243714,10.09463 8.687078,16.142148 17.31347,18.726814 2.486536,2.689419 5.700879,4.201597 9.010071,4.52556 0.09181,0.0046 0.184769,0.0093 0.276602,0.01071 0.256661,0.0055 0.512478,0.0028 0.769131,-0.0053 4.077686,0.270503 8.233784,-1.256924 11.28891,-4.561253 9.007415,-2.577427 16.962214,-6.229603 17.026162,-18.19324 l 0.0018,-0.223067 0.285525,-0.308722 -0.140978,-23.107826 0.07138,-11.74218 z" />
      <circle
         cx="61.939213"
         cy="59.660706"
         r="7.7717905"
         fill="#ffffff"
         stroke-opacity="0"
         id="circle16478"
         style="stroke-width:3.1372" />
      <circle
         cx="60.872559"
         cy="60.529716"
         r="6.7722783"
         fill="#31a72b"
         stroke-opacity="0"
         id="circle16480"
         style="fill:#31a72b;fill-opacity:1;stroke-width:3.1372" />
      <circle
         cx="38.344311"
         cy="59.936775"
         r="7.7717905"
         fill="#ffffff"
         stroke-opacity="0"
         id="circle16482"
         style="stroke-width:3.1372" />
      <circle
         cx="39.552139"
         cy="60.488922"
         r="6.7722783"
         fill="#31a72b"
         stroke-opacity="0"
         id="circle16484"
         style="fill:#31a72b;fill-opacity:1;stroke-width:3.1372" />
      <circle
         cx="40.376591"
         cy="61.216755"
         r="4.2104387"
         stroke-opacity="0"
         id="circle16486"
         style="stroke-width:3.1372" />
      <circle
         cx="60.46159"
         cy="61.219894"
         r="4.2104387"
         stroke-opacity="0"
         id="circle16488"
         style="stroke-width:3.1372" />
      <path
         id="path16490"
         style="fill:#ffaaaa;fill-opacity:1;stroke:none;stroke-width:4.15594;stroke-linecap:round;stroke-linejoin:round;stroke-miterlimit:4;stroke-dasharray:none;stroke-opacity:1"
         d="M 35.179161,76.197072 A 15.246125,19.530381 0 0 0 49.988946,91.093429 15.246125,19.530381 0 0 0 64.798722,76.197072 Z" />
      <ellipse
         style="fill:#ffc49b;fill-opacity:1;stroke:none;stroke-width:3.90689;stroke-linecap:round;stroke-linejoin:round;stroke-miterlimit:4;stroke-dasharray:none;stroke-opacity:1"
         id="ellipse16492"
         cx="50.482094"
         cy="68.364487"
         rx="4.3345866"
         ry="2.7010481" />
      <path
         id="path23631"
         style="fill:#000000;stroke:none;stroke-width:0.778506px;stroke-linecap:butt;stroke-linejoin:miter;stroke-opacity:1"
         d="M 68.968876,72.827791 C 58.522622,74.012294 46.03511,74.176605 35.634947,73.77633 29.350933,69.567677 64.364551,71.32436 68.968876,72.827791 Z"
         sodipodi:nodetypes="ccc" />
      <path
         id="rect30702"
         style="fill:#ffffff;fill-opacity:1;stroke:#e8e8e8;stroke-width:0.648292;stroke-linecap:round;stroke-linejoin:round;stroke-miterlimit:4;stroke-dasharray:none;stroke-opacity:1"
         d="M 50.451926,2.2704475 A 24.707794,13.799124 0 0 0 27.177735,11.683103 22.558216,12.598599 0 0 0 6.3206096,24.244424 22.558216,12.598599 0 0 0 17.485407,35.118431 v 9.716409 c 0,1.164664 2.003927,2.102196 4.491479,2.102196 h 56.048083 c 2.487537,0 4.489626,-0.937531 4.489626,-2.102196 V 35.040639 A 22.558216,12.598599 0 0 0 93.67939,24.168486 22.558216,12.598599 0 0 0 74.022461,11.673843 24.707794,13.799124 0 0 0 50.601952,2.2704475 a 24.707794,13.799124 0 0 0 -0.150026,0 z" />
      <path
         id="path32292"
         style="fill:none;fill-opacity:1;stroke:#e8e8e8;stroke-width:2.38089;stroke-linecap:round;stroke-linejoin:round;stroke-miterlimit:4;stroke-dasharray:none;stroke-opacity:1"
         d="m 66.011778,24.381654 a 16.027207,6.0900788 0 0 1 0.01543,0.267166 v 0 A 16.027207,6.0900788 0 0 1 50,30.738897 16.027207,6.0900788 0 0 1 33.972793,24.64882 a 16.027207,6.0900788 0 0 1 0.01581,-0.270465" />
    </symbol>
    <symbol
       id="cupid">
      <circle
         style="fill:#ffe1cc;fill-opacity:1;stroke:none;stroke-width:3.96472;stroke-linecap:round;stroke-linejoin:round;stroke-miterlimit:4;stroke-dasharray:none;stroke-opacity:1"
         id="circle35882"
         cx="75.446281"
         cy="54.81913"
         r="13.470948" />
      <circle
         style="fill:#ffc49b;fill-opacity:1;stroke:none;stroke-width:2.72631;stroke-linecap:round;stroke-linejoin:round;stroke-miterlimit:4;stroke-dasharray:none;stroke-opacity:1"
         id="circle35884"
         cx="75.446281"
         cy="54.81913"
         r="9.2631855" />
      <circle
         style="fill:#ffe1cc;fill-opacity:1;stroke:none;stroke-width:3.96472;stroke-linecap:round;stroke-linejoin:round;stroke-miterlimit:4;stroke-dasharray:none;stroke-opacity:1"
         id="circle36691"
         cx="25.424259"
         cy="55.314907"
         r="13.470948" />
      <circle
         style="fill:#ffc49b;fill-opacity:1;stroke:none;stroke-width:2.72631;stroke-linecap:round;stroke-linejoin:round;stroke-miterlimit:4;stroke-dasharray:none;stroke-opacity:1"
         id="circle36693"
         cx="25.424259"
         cy="55.314907"
         r="9.2631855" />
      <ellipse
         style="fill:none;fill-opacity:1;stroke:#ffbc4c;stroke-width:3.77;stroke-linecap:round;stroke-linejoin:round;stroke-miterlimit:4;stroke-dasharray:none;stroke-opacity:1"
         id="path38709"
         cx="52.480938"
         cy="13.222333"
         rx="30.808928"
         ry="9.5777617" />
      <rect
         style="fill:#ffe1cc;fill-opacity:1;stroke:none;stroke-width:2.96494;stroke-linecap:round;stroke-linejoin:round;stroke-miterlimit:4;stroke-dasharray:none;stroke-opacity:1"
         id="rect34734"
         width="60.134747"
         height="83.290543"
         x="20.266619"
         y="13.190593"
         ry="29.609125"
         rx="0" />
      <circle
         cx="62.267155"
         cy="57.501816"
         r="7.868927"
         fill="#ffffff"
         stroke-opacity="0"
         id="circle34897"
         style="stroke-width:3.17641" />
      <circle
         cx="38.37735"
         cy="57.781338"
         r="7.868927"
         fill="#ffffff"
         stroke-opacity="0"
         id="circle34901"
         style="stroke-width:3.17641" />
      <path
         id="circle34903"
         style="fill:#ff0000;fill-opacity:1;stroke-width:3.17641;stroke-opacity:0"
         d="m 39.873702,64.216959 c 6.763414,-3.953696 5.30373,-12.854679 -0.325722,-7.77207 -6.289296,-5.654674 -7.347027,4.058947 0.325722,7.77207 z"
         sodipodi:nodetypes="ccc" />
      <path
         id="path34909"
         style="fill:#ffaaaa;fill-opacity:1;stroke:none;stroke-width:4.20789;stroke-linecap:round;stroke-linejoin:round;stroke-miterlimit:4;stroke-dasharray:none;stroke-opacity:1"
         d="m 34.948347,71.832515 a 15.43668,19.774484 0 0 0 14.994887,15.08254 15.43668,19.774484 0 0 0 14.994878,-15.08254 z" />
      <ellipse
         style="fill:#ffc49b;fill-opacity:1;stroke:none;stroke-width:3.95571;stroke-linecap:round;stroke-linejoin:round;stroke-miterlimit:4;stroke-dasharray:none;stroke-opacity:1"
         id="ellipse34911"
         cx="50.666836"
         cy="66.314377"
         rx="4.388763"
         ry="2.7348075" />
      <path
         id="path35719"
         style="fill:#ff0000;fill-opacity:1;stroke-width:3.17641;stroke-opacity:0"
         d="m 60.848884,63.671788 c -6.763414,-3.953696 -5.30373,-12.854679 0.325722,-7.77207 6.289296,-5.654674 7.347027,4.058947 -0.325722,7.77207 z"
         sodipodi:nodetypes="ccc" />
      <path
         id="path37339"
         style="fill:#fff6d5;fill-opacity:1;stroke:none;stroke-width:2.65284;stroke-linecap:round;stroke-linejoin:round;stroke-miterlimit:4;stroke-dasharray:none;stroke-opacity:1"
         d="M 78.069667,25.616454 C 69.97675,47.728108 6.4777385,41.616618 28.503529,17.170289 42.760573,8.1999635 76.892879,9.0112396 84.198017,21.510074 l -2.666789,2.546622 z" />
    </symbol>
    <symbol
       id="villager">
      <circle
         style="fill:#ffe1cc;fill-opacity:1;stroke:none;stroke-width:4.28574;stroke-linecap:round;stroke-linejoin:round;stroke-miterlimit:4;stroke-dasharray:none;stroke-opacity:1"
         id="circle40972"
         cx="83.573669"
         cy="48.633614"
         r="14.561661" />
      <circle
         style="fill:#ffc49b;fill-opacity:1;stroke:none;stroke-width:2.94705;stroke-linecap:round;stroke-linejoin:round;stroke-miterlimit:4;stroke-dasharray:none;stroke-opacity:1"
         id="circle40974"
         cx="83.573669"
         cy="48.633614"
         r="10.013206" />
      <circle
         style="fill:#ffe1cc;fill-opacity:1;stroke:none;stroke-width:4.28574;stroke-linecap:round;stroke-linejoin:round;stroke-miterlimit:4;stroke-dasharray:none;stroke-opacity:1"
         id="circle39739"
         cx="22.620438"
         cy="49.130508"
         r="14.561661" />
      <circle
         style="fill:#ffc49b;fill-opacity:1;stroke:none;stroke-width:2.94705;stroke-linecap:round;stroke-linejoin:round;stroke-miterlimit:4;stroke-dasharray:none;stroke-opacity:1"
         id="circle39741"
         cx="22.620438"
         cy="49.130508"
         r="10.013206" />
      <rect
         style="fill:#ffe1cc;fill-opacity:1;stroke:none;stroke-width:3.89271;stroke-linecap:round;stroke-linejoin:round;stroke-miterlimit:4;stroke-dasharray:none;stroke-opacity:1"
         id="rect39562"
         width="71.554787"
         height="85.483101"
         x="17.178102"
         y="9.9782438"
         ry="31.568027" />
      <circle
         cx="69.655396"
         cy="49.901573"
         r="10.615858"
         fill="#ffffff"
         stroke-opacity="0"
         id="circle41504"
         style="stroke-width:4.28525" />
      <path
         id="rect41151"
         style="fill:#744607;fill-opacity:1;stroke:none;stroke-width:3.77;stroke-linecap:round;stroke-linejoin:round;stroke-miterlimit:4;stroke-dasharray:none;stroke-opacity:1"
         d="M 77.568009,6.0257465 H 22.591995 c -9.074051,0 -16.3791535,7.3051025 -16.3791535,16.3791545 0,9.074051 7.3579435,15.401312 16.3791535,16.379154 24.228244,-0.469557 52.260865,-10.921063 56.535115,12.402614 1.233046,8.989883 17.262822,-20.692819 17.262822,-29.76687 0,-9.074052 -9.747872,-15.3940525 -18.821923,-15.3940525 z"
         sodipodi:nodetypes="sssccss" />
      <circle
         cx="68.19841"
         cy="51.088596"
         r="9.250576"
         fill="#31a72b"
         stroke-opacity="0"
         id="circle41506"
         style="fill:#744607;fill-opacity:1;stroke-width:4.28525" />
      <circle
         cx="37.42601"
         cy="50.278675"
         r="10.615858"
         fill="#ffffff"
         stroke-opacity="0"
         id="circle41508"
         style="stroke-width:4.28525" />
      <circle
         cx="39.075829"
         cy="51.032879"
         r="9.250576"
         fill="#31a72b"
         stroke-opacity="0"
         id="circle41510"
         style="fill:#744607;fill-opacity:1;stroke-width:4.28525" />
      <circle
         cx="40.201992"
         cy="52.027061"
         r="5.7512379"
         stroke-opacity="0"
         id="circle41512"
         style="stroke-width:4.28525" />
      <circle
         cx="67.637047"
         cy="52.031342"
         r="5.7512379"
         stroke-opacity="0"
         id="circle41514"
         style="stroke-width:4.28525" />
      <path
         id="path41516"
         style="fill:#ffaaaa;fill-opacity:1;stroke:none;stroke-width:5.6768;stroke-linecap:round;stroke-linejoin:round;stroke-miterlimit:4;stroke-dasharray:none;stroke-opacity:1"
         d="M 32.79999,69.234914 A 20.825404,26.677473 0 0 0 53.029377,89.582553 20.825404,26.677473 0 0 0 73.258753,69.234914 Z" />
      <ellipse
         style="fill:#ffc49b;fill-opacity:1;stroke:none;stroke-width:5.3366;stroke-linecap:round;stroke-linejoin:round;stroke-miterlimit:4;stroke-dasharray:none;stroke-opacity:1"
         id="ellipse41518"
         cx="54.005577"
         cy="61.790462"
         rx="5.9208179"
         ry="3.6894896" />
    </symbol>
  </defs>
  <use
     transform="translate(100)"
     width="100%"
     height="100%"
     xlink:href="#seer"
     id="use174" />
  <use
     transform="translate(500)"
     width="100%"
     height="100%"
     xlink:href="#wolf"
     id="use176" />
  <use
     transform="translate(294.91 1.0135)"
     width="100%"
     height="100%"
     xlink:href="#minion"
     id="use178" />
  <use
     transform="translate(400)"
     width="100%"
     height="100%"
     xlink:href="#idiot"
     id="use180" />
  <use
     transform="translate(600)"
     width="100%"
     height="100%"
     xlink:href="#amulate"
     id="use184" />
  <use
     xlink:href="#sandwich"
     id="use2139"
     transform="translate(700)"
     x="0"
     y="0"
     width="100%"
     height="100%" />
  <use
     xlink:href="#noose"
     id="use2413"
     transform="translate(800)"
     x="0"
     y="0"
     width="100%"
     height="100%" />
  <use
     xlink:href="#wolf-cub"
     id="use10622"
     transform="translate(900)"
     x="0"
     y="0"
     width="100%"
     height="100%" />
  <use
     xlink:href="#alpha-wolf"
     id="use25222"
     transform="translate(1000)" />
  <circle
     cx="65.658897"
     cy="160.505"
     r="8.5060568"
     fill="#ffffff"
     stroke-opacity="0"
     id="circle5969"
     style="stroke-width:3.4336" />
  <circle
     cx="64.49147"
     cy="161.45612"
     r="7.4121122"
     fill="#31a72b"
     stroke-opacity="0"
     id="circle5971"
     style="fill:#0edfdf;fill-opacity:1;stroke-width:3.4336" />
  <circle
     cx="39.834789"
     cy="160.80716"
     r="8.5060568"
     fill="#ffffff"
     stroke-opacity="0"
     id="circle5973"
     style="stroke-width:3.4336" />
  <circle
     cx="41.156727"
     cy="161.41147"
     r="7.4121122"
     fill="#31a72b"
     stroke-opacity="0"
     id="circle5975"
     style="fill:#0edfdf;fill-opacity:1;stroke-width:3.4336" />
  <circle
     cx="42.059074"
     cy="162.20807"
     r="4.6082344"
     stroke-opacity="0"
     id="circle5977"
     style="stroke-width:3.4336" />
  <circle
     cx="64.041672"
     cy="162.2115"
     r="4.6082344"
     stroke-opacity="0"
     id="circle5979"
     style="stroke-width:3.4336" />
  <use
     xlink:href="#bodyguard"
     id="use6342"
     transform="translate(201.07538,4.6035597)"
     x="0"
     y="0"
     width="100%"
     height="100%" />
  <path
     id="path6991"
     style="fill:#ffaaaa;fill-opacity:1;stroke:none;stroke-width:4.54859;stroke-linecap:round;stroke-linejoin:round;stroke-miterlimit:4;stroke-dasharray:none;stroke-opacity:1"
     d="m 36.128147,175.99603 a 16.686554,21.37558 0 0 0 16.20899,16.30374 16.686554,21.37558 0 0 0 16.20898,-16.30374 z" />
  <ellipse
     style="fill:#ffc49b;fill-opacity:1;stroke:none;stroke-width:4.276;stroke-linecap:round;stroke-linejoin:round;stroke-miterlimit:4;stroke-dasharray:none;stroke-opacity:1"
     id="path10182"
     cx="53.119328"
     cy="170.0311"
     rx="4.7441115"
     ry="2.9562387" />
  <use
     xlink:href="#angel"
     id="use10738"
     transform="translate(97.89036,-114.86056)"
     x="0"
     y="0"
     width="100%"
     height="100%" />
  <circle
     style="fill:#ffe1cc;fill-opacity:1;stroke:none;stroke-width:4.28574;stroke-linecap:round;stroke-linejoin:round;stroke-miterlimit:4;stroke-dasharray:none;stroke-opacity:1"
     id="path16636"
     cx="100.23774"
     cy="164.25529"
     r="14.561661" />
  <circle
     style="fill:#ffc49b;fill-opacity:1;stroke:none;stroke-width:2.94705;stroke-linecap:round;stroke-linejoin:round;stroke-miterlimit:4;stroke-dasharray:none;stroke-opacity:1"
     id="circle16780"
     cx="100.23774"
     cy="164.25529"
     r="10.013206" />
  <use
     xlink:href="#baker"
     id="use33349"
     transform="translate(201.47301,-113.53015)"
     x="0"
     y="0"
     width="100%"
     height="100%" />
  <use
     xlink:href="#cupid"
     id="use39385"
     transform="translate(298.53712,-113.14644)"
     x="0"
     y="0"
     width="100%"
     height="100%" />
  <use
     xlink:href="#villager"
     id="use72115"
     transform="translate(397.94508,-110.42247)"
     x="0"
     y="0"
     width="100%"
     height="100%" />
  <g
     id="werewolf"
     inkscape:label="werewolf"
     transform="translate(502.82411,0.69914805)">
    <path
       d="m 42.15752,10.154831 17.4632,-0.07804 c 9.753964,-0.04358 25.214237,13.484325 24.657552,21.389257 0,0 0.391161,16.7131 -1.737619,24.681111 -2.429884,9.09468 -11.046309,17.156928 -12.331435,25.407271 -1.192941,7.659838 -5.505295,12.851262 -11.251124,15.837983 -4.497562,2.337851 -10.676579,2.36027 -15.20606,0.08523 C 37.362122,94.268136 32.805662,89.652892 31.039849,80.197981 29.274073,70.74269 18.245205,63.288806 17.256471,54.062649 16.568347,47.641578 16.946096,40.423667 16.794138,31.708977 16.655707,23.770606 32.403747,10.198883 42.15771,10.155184 Z"
       fill="#8f8f8f"
       id="path38"
       style="stroke-width:3.7999" />
    <circle
       cx="37.316448"
       cy="38.750595"
       r="10.644279"
       id="circle40"
       style="stroke-width:3.7999" />
    <circle
       cx="63.211624"
       cy="38.393406"
       r="10.644279"
       id="circle42"
       style="stroke-width:3.7999" />
    <path
       d="M 17.863999,50.537888 C 12.51982,31.09418 5.4109671,-1.6043399 23.265557,1.1391879 38.213604,4.5054053 38.792709,16.494204 28.311444,23.407742 20.48935,28.567246 17.036001,45.711255 17.863999,50.537888 Z"
       fill="#8f8f8f"
       stroke-width="2.23852"
       id="path44" />
    <path
       d="M 18.081354,31.498109 C 16.425205,21.747566 14.556566,5.4421947 23.135601,7.6556364 c 7.130132,2.3745956 6.82576,8.2537626 1.372258,11.1143276 -4.070073,2.135126 -6.594347,10.332308 -6.426771,12.728525 z"
       fill="#9a3030"
       stroke-width="2.23852"
       id="path46" />
    <circle
       cx="50.755554"
       cy="80.724297"
       r="10.997671"
       fill="#9a3030"
       id="circle48"
       style="stroke-width:3.7999" />
    <path
       d="m 50.755554,69.723583 a 10.997671,10.997671 0 0 0 -10.732438,8.601834 l 1.343037,4.852852 2.721906,-10.112674 3.130244,9.528249 2.956702,-9.451871 3.481886,9.292275 3.775733,-10.011976 2.535673,9.958778 1.411283,-4.504402 A 10.997671,10.997671 0 0 0 50.75582,69.723583 Z"
       fill="#fff6d5"
       id="path50"
       style="stroke-width:3.7999" />
    <path
       d="m 42.328516,84.706589 -0.625806,2.26151 a 10.997671,10.997671 0 0 0 1.773337,2.000078 z m 5.117705,0.511314 -1.734008,5.278441 a 10.997671,10.997671 0 0 0 3.744497,1.147532 z m 5.629932,0.139989 -2.384134,6.362172 a 10.997671,10.997671 0 0 0 0.06247,0.0012 10.997671,10.997671 0 0 0 4.379385,-0.90924 z m 5.518974,0.04628 -1.000627,3.930617 a 10.997671,10.997671 0 0 0 1.703951,-1.686586 z"
       fill="#fff6d5"
       id="path52"
       style="stroke-width:3.7999" />
    <path
       d="M 81.454946,49.922304 C 87.181395,30.587273 94.933571,-1.9653304 77.028062,0.4248067 62.016557,3.4957339 61.201099,15.470891 71.544427,22.589623 c 7.718737,5.313021 10.833895,22.521628 9.910519,27.330781 z"
       fill="#8f8f8f"
       stroke-width="2.23852"
       id="path54" />
    <path
       d="m 81.614542,30.880245 c 1.848043,-9.715964 4.037773,-25.981436 -4.58344,-23.9374698 -7.175731,2.2335812 -6.987256,8.1177268 -1.591094,11.0854478 4.027134,2.214924 6.389532,10.460365 6.174458,12.852782 z"
       fill="#9a3030"
       stroke-width="2.23852"
       id="path56" />
    <ellipse
       cx="50.174168"
       cy="61.747597"
       rx="4.9645691"
       ry="3.0682673"
       stroke-opacity="0"
       id="ellipse58"
       style="stroke-width:3.7999" />
  </g>
  <g
     id="g83666"
     transform="translate(61.40161,187.26088)">
    <path
       id="path72925"
       style="fill:#8f8f8f;fill-opacity:1;stroke-width:3.7999"
       d="m -227.14063,3.4678305 c -3.11722,-1.6639512 -6.25201,-2.75622325 -8.95508,-2.74414055 l -17.46289,0.078125 c -9.75396,0.0437 -25.50171,13.61630705 -25.36328,21.55468805 0.15196,8.714689 -0.22523,15.932445 0.46289,22.353515 0.84898,7.922067 9.06843,14.544443 12.50195,22.242188 l 12.1836,-9.798829 -19.31641,-18.816406 z" />
    <path
       id="circle72927"
       style="stroke-width:3.7999"
       d="m -251.10157,21.651424 a 10.644279,10.644279 0 0 0 -7.29883,-2.898437 10.644279,10.644279 0 0 0 -10.64453,10.644531 10.644279,10.644279 0 0 0 1.21875,4.945313 z" />
    <path
       d="m -277.85243,41.184431 c -5.34418,-19.44371 -12.45303,-52.14223 5.40156,-49.3986998 14.94805,3.3662101 15.52715,15.3550097 5.04589,22.2685498 -7.8221,5.1595 -11.27545,22.30351 -10.44745,27.13015 z"
       fill="#8f8f8f"
       stroke-width="2.23852"
       id="path72931" />
    <path
       d="m -277.63507,22.144651 c -1.65615,-9.75055 -3.52479,-26.0559197 5.05424,-23.8424801 7.13013,2.37460005 6.82576,8.25377 1.37226,11.11433 -4.07007,2.1351301 -6.59435,10.3323101 -6.42677,12.7285301 z"
       fill="#9a3030"
       stroke-width="2.23852"
       id="path72933" />
    <path
       id="path72941"
       d="m -212.35938,-7.7509195 c -1.62056,-1.0371628 -3.65894,-1.5340327 -6.32813,-1.1777344 -10.48269,2.1444639 -13.90623,8.62485195 -11.57812,14.7675778 z"
       style="fill:#8f8f8f;fill-opacity:1" />
  </g>
  <g
     id="g83855"
     transform="translate(125.17378,127.76549)">
    <path
       id="path82760"
       style="fill:#8f8f8f;fill-opacity:1;stroke-width:3.7999"
       d="m -172.26367,7.8535156 -45.94922,34.8691404 19.31641,18.816406 -12.1836,9.798829 c 0.56521,1.267157 1.03167,2.556106 1.28125,3.892578 1.76581,9.45491 6.32102,14.069791 12.71094,17.279297 4.52948,2.27507 10.70947,2.251912 15.20703,-0.08594 5.74583,-2.986716 10.05706,-8.17805 11.25,-15.83789 1.28512,-8.25034 9.90215,-16.31157 12.33203,-25.40625 2.12878,-7.96801 1.73828,-24.681641 1.73828,-24.681641 0.40242,-5.714279 -7.57196,-14.304162 -15.70312,-18.6445314 z" />
    <path
       id="path80607"
       style="stroke-width:3.7999"
       d="m -196.22461,26.037109 -16.72461,12.691407 a 10.644279,10.644279 0 0 0 9.42578,5.699218 10.644279,10.644279 0 0 0 10.64453,-10.644531 10.644279,10.644279 0 0 0 -3.3457,-7.746094 z" />
    <path
       id="circle72929"
       style="stroke-width:3.7999"
       d="m -166.98356,33.425629 a 10.644279,10.644279 0 0 1 -10.64428,10.644278 10.644279,10.644279 0 0 1 -10.64428,-10.644278 10.644279,10.644279 0 0 1 10.64428,-10.644279 10.644279,10.644279 0 0 1 10.64428,10.644279 z" />
    <path
       id="circle72935"
       style="fill:#9a3030;stroke-width:3.7999"
       d="m -179.08624,75.756523 a 10.997671,10.997671 0 0 1 -10.99767,10.997671 10.997671,10.997671 0 0 1 -10.99767,-10.997671 10.997671,10.997671 0 0 1 10.99767,-10.997671 10.997671,10.997671 0 0 1 10.99767,10.997671 z" />
    <path
       d="m -190.08391,64.755806 a 10.997671,10.997671 0 0 0 -10.73244,8.60184 l 1.34303,4.85285 2.72191,-10.11268 3.13024,9.52825 2.95671,-9.45187 3.48188,9.29228 3.77573,-10.01198 2.53568,9.95878 1.41128,-4.5044 a 10.997671,10.997671 0 0 0 -10.62376,-8.15307 z"
       fill="#fff6d5"
       id="path72937"
       style="stroke-width:3.7999" />
    <path
       d="m -198.51095,79.738816 -0.62581,2.26151 a 10.997671,10.997671 0 0 0 1.77334,2.00008 z m 5.1177,0.51131 -1.73401,5.27844 a 10.997671,10.997671 0 0 0 3.7445,1.14753 z m 5.62993,0.13999 -2.38413,6.36217 a 10.997671,10.997671 0 0 0 0.0625,0.001 10.997671,10.997671 0 0 0 4.37939,-0.90924 z m 5.51898,0.0463 -1.00063,3.93062 a 10.997671,10.997671 0 0 0 1.70395,-1.68659 z"
       fill="#fff6d5"
       id="path72939"
       style="stroke-width:3.7999" />
    <path
       id="path83480"
       d="m -157.48242,-3.3652344 -17.90625,13.5898434 c 1.00581,2.653823 2.97328,5.248842 6.09375,7.396485 7.71873,5.31302 10.83352,22.522881 9.91015,27.332031 4.87274,-16.452832 11.15256,-42.3981954 1.90235,-48.3183594 z"
       style="fill:#8f8f8f;fill-opacity:1" />
    <path
       d="m -159.22493,25.912466 c 1.84805,-9.71596 4.03778,-25.98142968 -4.58344,-23.9374697 -7.17573,2.2335797 -6.98725,8.1177297 -1.59109,11.0854497 4.02713,2.21493 6.38953,10.46037 6.17446,12.85278 z"
       fill="#9a3030"
       stroke-width="2.23852"
       id="path72943" />
    <path
       id="ellipse72945"
       style="stroke-width:3.7999;stroke-opacity:0"
       d="m -185.70074,56.779816 a 4.9645691,3.0682673 0 0 1 -4.96457,3.068267 4.9645691,3.0682673 0 0 1 -4.96457,-3.068267 4.9645691,3.0682673 0 0 1 4.96457,-3.068268 4.9645691,3.0682673 0 0 1 4.96457,3.068268 z" />
  </g>
  <g
     id="g85847"
     transform="translate(44.470353,3.7885388)">
    <circle
       style="fill:#ffe1cc;fill-opacity:1;stroke:none;stroke-width:4.28574;stroke-linecap:round;stroke-linejoin:round;stroke-miterlimit:4;stroke-dasharray:none;stroke-opacity:1"
       id="circle73498"
       cx="-141.0443"
       cy="152.66327"
       r="14.561661" />
    <circle
       style="fill:#ffc49b;fill-opacity:1;stroke:none;stroke-width:2.94705;stroke-linecap:round;stroke-linejoin:round;stroke-miterlimit:4;stroke-dasharray:none;stroke-opacity:1"
       id="circle73500"
       cx="-141.0443"
       cy="152.66327"
       r="10.013206" />
    <path
       id="path84936"
       style="fill:#ffe1cc;fill-opacity:1;stroke:none;stroke-width:3.89271;stroke-linecap:round;stroke-linejoin:round;stroke-miterlimit:4;stroke-dasharray:none;stroke-opacity:1"
       d="m -114.91776,113.51054 c -17.48869,0 -31.56837,14.07967 -31.56837,31.56836 v 22.34766 c 0,12.09209 6.80935,22.429 16.74414,27.73437 l 8.06641,-6.48828 -19.31445,-18.81641 58.85547,-44.66406 c -5.779619,-7.08019 -14.47142,-11.68164 -24.36523,-11.68164 z" />
    <path
       id="path84575"
       style="fill:#744607;fill-opacity:1;stroke:none;stroke-width:3.77;stroke-linecap:round;stroke-linejoin:round;stroke-miterlimit:4;stroke-dasharray:none;stroke-opacity:1"
       d="m -141.07206,109.55937 c -9.07405,0 -16.37891,7.30486 -16.37891,16.37891 0,9.07405 7.3577,15.40105 16.37891,16.3789 13.61396,-0.26385 28.29166,-3.50844 39.41797,-2.3125 l 31.062499,-23.57031 c -3.624987,-4.2566 -9.687667,-6.875 -15.505859,-6.875 z" />
    <path
       id="circle73510"
       style="fill:#ffffff;fill-opacity:1;stroke-width:4.28525"
       d="m -116.02714,150.91289 a 10.615858,10.615858 0 0 0 -10.21094,-7.7168 10.615858,10.615858 0 0 0 -10.61719,10.61523 10.615858,10.615858 0 0 0 5.07617,9.05469 z" />
    <path
       id="circle73512"
       style="fill:#744607;fill-opacity:1;stroke-width:4.28525"
       d="m -116.07597,150.95 a 9.250576,9.250576 0 0 0 -8.51367,-5.63477 9.250576,9.250576 0 0 0 -9.25,9.25 9.250576,9.250576 0 0 0 3.47656,7.22656 z" />
    <path
       id="circle73514"
       style="stroke-width:4.28525"
       d="m -118.44706,152.74882 a 5.7512379,5.7512379 0 0 0 -5.01563,-2.93945 5.7512379,5.7512379 0 0 0 -5.75195,5.75 5.7512379,5.7512379 0 0 0 1.69336,4.07422 z" />
  </g>
  <g
     id="g86408"
     transform="translate(-90.033205,55.901671)">
    <circle
       style="fill:#ffe1cc;fill-opacity:1;stroke:none;stroke-width:4.28574;stroke-linecap:round;stroke-linejoin:round;stroke-miterlimit:4;stroke-dasharray:none;stroke-opacity:1"
       id="circle73494"
       cx="-60.546329"
       cy="151.63824"
       r="14.561661" />
    <circle
       style="fill:#ffc49b;fill-opacity:1;stroke:none;stroke-width:2.94705;stroke-linecap:round;stroke-linejoin:round;stroke-miterlimit:4;stroke-dasharray:none;stroke-opacity:1"
       id="circle73496"
       cx="-60.546329"
       cy="151.63824"
       r="10.013206" />
    <path
       id="rect73502"
       style="fill:#ffe1cc;fill-opacity:1;stroke:none;stroke-width:3.89271;stroke-linecap:round;stroke-linejoin:round;stroke-miterlimit:4;stroke-dasharray:none;stroke-opacity:1"
       d="m -62.589844,124.66406 -58.855466,44.66406 19.31445,18.81641 -8.06641,6.48828 c 4.43382,2.36774 9.42763,3.83399 14.824223,3.83399 h 8.417969 c 17.488687,0 31.568359,-14.07968 31.568359,-31.56836 v -22.34766 c 0,-7.59487 -2.766466,-14.45169 -7.203125,-19.88672 z" />
    <circle
       cx="-74.464607"
       cy="152.9062"
       r="10.615858"
       fill="#ffffff"
       stroke-opacity="0"
       id="circle73504"
       style="stroke-width:4.28525" />
    <path
       id="path73506"
       style="fill:#744607;fill-opacity:1;stroke:none;stroke-width:3.77;stroke-linecap:round;stroke-linejoin:round;stroke-miterlimit:4;stroke-dasharray:none;stroke-opacity:1"
       d="m -51.046875,115.90625 -31.0625,23.57031 c 8.674747,0.93243 15.244659,4.49686 17.117187,14.71485 1.233047,8.98988 17.261719,-20.69353 17.261719,-29.76758 0,-3.25586 -1.287864,-6.13559 -3.316406,-8.51758 z" />
    <circle
       cx="-75.921593"
       cy="154.09323"
       r="9.250576"
       fill="#31a72b"
       stroke-opacity="0"
       id="circle73508"
       style="fill:#744607;fill-opacity:1;stroke-width:4.28525" />
    <path
       id="path85659"
       style="fill:#ffffff;fill-opacity:1;stroke-width:4.28525"
       d="m -96.482422,150.38477 -15.751958,11.95312 a 10.615858,10.615858 0 0 0 5.54102,1.56055 10.615858,10.615858 0 0 0 10.615235,-10.61524 10.615858,10.615858 0 0 0 -0.404297,-2.89843 z" />
    <path
       id="path85298"
       style="fill:#744607;fill-opacity:1;stroke-width:4.28525"
       d="m -96.53125,150.42188 -14.28711,10.84179 a 9.250576,9.250576 0 0 0 5.77344,2.02344 9.250576,9.250576 0 0 0 9.251951,-9.25 9.250576,9.250576 0 0 0 -0.738281,-3.61523 z" />
    <path
       id="path85117"
       style="stroke-width:4.28525"
       d="m -98.902344,152.2207 -9.074216,6.88477 a 5.7512379,5.7512379 0 0 0 4.05859,1.67773 5.7512379,5.7512379 0 0 0 5.751954,-5.75195 5.7512379,5.7512379 0 0 0 -0.736328,-2.81055 z" />
    <circle
       cx="-76.482956"
       cy="155.03598"
       r="5.7512379"
       stroke-opacity="0"
       id="circle73516"
       style="stroke-width:4.28525" />
    <path
       id="path73518"
       style="fill:#ffaaaa;fill-opacity:1;stroke:none;stroke-width:5.6768;stroke-linecap:round;stroke-linejoin:round;stroke-miterlimit:4;stroke-dasharray:none;stroke-opacity:1"
       d="m -111.32001,172.23954 a 20.825404,26.677473 0 0 0 20.229387,20.34764 20.825404,26.677473 0 0 0 20.229376,-20.34764 z" />
    <ellipse
       style="fill:#ffc49b;fill-opacity:1;stroke:none;stroke-width:5.3366;stroke-linecap:round;stroke-linejoin:round;stroke-miterlimit:4;stroke-dasharray:none;stroke-opacity:1"
       id="ellipse73520"
       cx="-90.114426"
       cy="164.79509"
       rx="5.9208179"
       ry="3.6894896" />
  </g>
  <circle
     style="fill:#ffe1cc;fill-opacity:1;stroke:none;stroke-width:4.28574;stroke-linecap:round;stroke-linejoin:round;stroke-miterlimit:4;stroke-dasharray:none;stroke-opacity:1"
     id="circle71705"
     cx="-219.70998"
     cy="53.294704"
     r="14.561661" />
  <circle
     style="fill:#ffc49b;fill-opacity:1;stroke:none;stroke-width:2.94705;stroke-linecap:round;stroke-linejoin:round;stroke-miterlimit:4;stroke-dasharray:none;stroke-opacity:1"
     id="circle71707"
     cx="-219.70998"
     cy="53.294704"
     r="10.013206" />
  <circle
     style="fill:#ffe1cc;fill-opacity:1;stroke:none;stroke-width:4.28574;stroke-linecap:round;stroke-linejoin:round;stroke-miterlimit:4;stroke-dasharray:none;stroke-opacity:1"
     id="circle71709"
     cx="-280.66324"
     cy="53.791592"
     r="14.561661" />
  <circle
     style="fill:#ffc49b;fill-opacity:1;stroke:none;stroke-width:2.94705;stroke-linecap:round;stroke-linejoin:round;stroke-miterlimit:4;stroke-dasharray:none;stroke-opacity:1"
     id="circle71711"
     cx="-280.66324"
     cy="53.791592"
     r="10.013206" />
  <path
     style="fill:#ffe1cc;fill-opacity:1;stroke:none;stroke-width:3.89271;stroke-linecap:round;stroke-linejoin:round;stroke-miterlimit:4;stroke-dasharray:none;stroke-opacity:1"
     id="rect71713"
     width="71.554787"
     height="85.483101"
     x="-286.10556"
     y="14.639326"
     ry="31.568027"
     sodipodi:type="rect"
     d="m -254.53753,14.639326 h 8.41873 c 17.48869,0 31.56803,14.07934 31.56803,31.568028 v 22.347045 c 0,17.488688 -14.07934,31.568031 -31.56803,31.568031 h -8.41873 c -17.48869,0 -31.56803,-14.079343 -31.56803,-31.568031 V 46.207354 c 0,-17.488688 14.07934,-31.568028 31.56803,-31.568028 z" />
  <circle
     cx="-233.62825"
     cy="54.562664"
     r="10.615858"
     fill="#ffffff"
     stroke-opacity="0"
     id="circle71715"
     style="stroke-width:4.28525" />
  <path
     id="path71717"
     style="fill:#744607;fill-opacity:1;stroke:none;stroke-width:3.77;stroke-linecap:round;stroke-linejoin:round;stroke-miterlimit:4;stroke-dasharray:none;stroke-opacity:1"
     d="m -225.71566,10.686838 h -54.97601 c -9.07405,0 -16.37916,7.3051 -16.37916,16.37915 0,9.07405 7.35795,15.40131 16.37916,16.37916 24.22824,-0.46956 52.26086,-10.92107 56.53511,12.40261 1.23305,8.98988 17.26282,-20.69282 17.26282,-29.76687 0,-9.07405 -9.74787,-15.39405 -18.82192,-15.39405 z"
     sodipodi:nodetypes="sssccss" />
  <circle
     cx="-235.08525"
     cy="55.749691"
     r="9.250576"
     fill="#31a72b"
     stroke-opacity="0"
     id="circle71719"
     style="fill:#744607;fill-opacity:1;stroke-width:4.28525" />
  <circle
     cx="-265.85767"
     cy="54.93977"
     r="10.615858"
     fill="#ffffff"
     stroke-opacity="0"
     id="circle71721"
     style="stroke-width:4.28525" />
  <circle
     cx="-264.20786"
     cy="55.693966"
     r="9.250576"
     fill="#31a72b"
     stroke-opacity="0"
     id="circle71723"
     style="fill:#744607;fill-opacity:1;stroke-width:4.28525" />
  <circle
     cx="-263.08167"
     cy="56.688152"
     r="5.7512379"
     stroke-opacity="0"
     id="circle71725"
     style="stroke-width:4.28525" />
  <circle
     cx="-235.64662"
     cy="56.692425"
     r="5.7512379"
     stroke-opacity="0"
     id="circle71727"
     style="stroke-width:4.28525" />
  <path
     id="path71729"
     style="fill:#ffaaaa;fill-opacity:1;stroke:none;stroke-width:5.6768;stroke-linecap:round;stroke-linejoin:round;stroke-miterlimit:4;stroke-dasharray:none;stroke-opacity:1"
     d="m -270.48368,73.896008 a 20.825404,26.677473 0 0 0 20.22939,20.34763 20.825404,26.677473 0 0 0 20.22937,-20.34763 z" />
  <ellipse
     style="fill:#ffc49b;fill-opacity:1;stroke:none;stroke-width:5.3366;stroke-linecap:round;stroke-linejoin:round;stroke-miterlimit:4;stroke-dasharray:none;stroke-opacity:1"
     id="ellipse71731"
     cx="-249.27809"
     cy="66.451546"
     rx="5.9208179"
     ry="3.6894896" />
  <path
     d="m -257.88532,29.346641 17.4632,-0.078 c 9.75396,-0.0436 25.21424,13.48432 24.65755,21.38926 0,0 0.39116,16.7131 -1.73762,24.68111 -2.42988,9.09468 -11.04631,17.15693 -12.33143,25.407269 -1.19294,7.65984 -5.5053,12.85126 -11.25113,15.83797 -4.49756,2.33785 -10.67657,2.36027 -15.20605,0.0852 -6.38992,-3.2095 -10.94638,-7.82474 -12.71219,-17.279653 -1.76578,-9.455286 -12.79464,-16.909176 -13.78338,-26.135326 -0.68812,-6.42107 -0.31037,-13.63898 -0.46233,-22.35367 -0.13843,-7.93838 15.60961,-21.5101 25.36357,-21.5538 z"
     fill="#8f8f8f"
     id="path73522"
     style="stroke-width:3.7999" />
  <circle
     cx="-262.72638"
     cy="57.942406"
     r="10.644279"
     id="circle73524"
     style="stroke-width:3.7999" />
  <circle
     cx="-236.83121"
     cy="57.585213"
     r="10.644279"
     id="circle73526"
     style="stroke-width:3.7999" />
  <path
     d="m -282.17884,69.729701 c -5.34418,-19.44371 -12.45303,-52.142231 5.40156,-49.3987 14.94805,3.36621 15.52715,15.35501 5.04589,22.26855 -7.8221,5.1595 -11.27545,22.30351 -10.44745,27.13015 z"
     fill="#8f8f8f"
     stroke-width="2.23852"
     id="path73528" />
  <path
     d="m -281.96148,50.689921 c -1.65615,-9.75055 -3.52479,-26.05592 5.05424,-23.84248 7.13013,2.3746 6.82576,8.25377 1.37226,11.11433 -4.07007,2.13513 -6.59435,10.33231 -6.42677,12.72853 z"
     fill="#9a3030"
     stroke-width="2.23852"
     id="path73530" />
  <circle
     cx="-249.28728"
     cy="99.916092"
     r="10.997671"
     fill="#9a3030"
     id="circle73532"
     style="stroke-width:3.7999" />
  <path
     d="m -249.28728,88.915391 a 10.997671,10.997671 0 0 0 -10.73244,8.601836 l 1.34303,4.852853 2.72191,-10.112679 3.13024,9.528249 2.95671,-9.451869 3.48188,9.292279 3.77573,-10.011979 2.53568,9.958779 1.41128,-4.504399 a 10.997671,10.997671 0 0 0 -10.62376,-8.15307 z"
     fill="#fff6d5"
     id="path73534"
     style="stroke-width:3.7999" />
  <path
     d="m -257.71432,103.8984 -0.62581,2.26151 a 10.997671,10.997671 0 0 0 1.77334,2.00008 z m 5.1177,0.51131 -1.73401,5.27844 a 10.997671,10.997671 0 0 0 3.7445,1.14753 z m 5.62993,0.13999 -2.38413,6.36217 a 10.997671,10.997671 0 0 0 0.0625,0.001 10.997671,10.997671 0 0 0 4.37939,-0.90924 z m 5.51898,0.0463 -1.00063,3.93062 a 10.997671,10.997671 0 0 0 1.70395,-1.68659 z"
     fill="#fff6d5"
     id="path73536"
     style="stroke-width:3.7999" />
  <path
     d="m -218.58789,69.114111 c 5.72645,-19.33503 13.47862,-51.887631 -4.42689,-49.4975 -15.0115,3.07093 -15.82696,15.04609 -5.48363,22.16482 7.71873,5.31302 10.83389,22.52163 9.91052,27.33078 z"
     fill="#8f8f8f"
     stroke-width="2.23852"
     id="path73538" />
  <path
     d="m -218.4283,50.072051 c 1.84805,-9.71596 4.03778,-25.98143 -4.58344,-23.93747 -7.17573,2.23358 -6.98725,8.11773 -1.59109,11.08545 4.02713,2.21493 6.38953,10.46037 6.17446,12.85278 z"
     fill="#9a3030"
     stroke-width="2.23852"
     id="path73540" />
  <ellipse
     cx="-249.86868"
     cy="80.9394"
     rx="4.9645691"
     ry="3.0682673"
     stroke-opacity="0"
     id="ellipse73542"
     style="stroke-width:3.7999" />
  <path
     style="fill:none;stroke:#000000;stroke-width:1px;stroke-linecap:butt;stroke-linejoin:miter;stroke-opacity:1"
     d="m -125.76193,288.59046 54.730427,-44.016 -19.31495,-18.81536 71.498163,-54.25799"
     id="path73722" />
  <path
     style="fill:none;stroke:#000000;stroke-width:1px;stroke-linecap:butt;stroke-linejoin:miter;stroke-opacity:1"
     d="m -40.561158,132.2958 29.085362,84.61248 -19.044352,17.75827 24.8699986,32.68984"
     id="path73902" />
</svg>
